<svg width="484" height="484" viewBox="0 0 484 484" fill="none" xmlns="http://www.w3.org/2000/svg">
<path d="M347.875 242C359.909 242 371.451 246.781 379.96 255.29C388.469 263.799 393.25 275.341 393.25 287.375V302.5C393.25 362.123 336.985 423.5 242 423.5C147.015 423.5 90.75 362.123 90.75 302.5V287.375C90.75 275.341 95.5306 263.799 104.04 255.29C112.549 246.781 124.091 242 136.125 242H347.875Z" fill="url(#paint0_linear_42_128)"/>
<path d="M347.875 242C359.909 242 371.451 246.781 379.96 255.29C388.469 263.799 393.25 275.341 393.25 287.375V302.5C393.25 362.123 336.985 423.5 242 423.5C147.015 423.5 90.75 362.123 90.75 302.5V287.375C90.75 275.341 95.5306 263.799 104.04 255.29C112.549 246.781 124.091 242 136.125 242H347.875Z" fill="url(#paint1_linear_42_128)"/>
<path d="M242 45.375C264.063 45.375 285.222 54.1394 300.822 69.7401C316.423 85.3407 325.188 106.5 325.188 128.562C325.188 150.625 316.423 171.784 300.822 187.385C285.222 202.986 264.063 211.75 242 211.75C219.937 211.75 198.778 202.986 183.178 187.385C167.577 171.784 158.812 150.625 158.812 128.562C158.812 106.5 167.577 85.3407 183.178 69.7401C198.778 54.1394 219.937 45.375 242 45.375Z" fill="url(#paint2_linear_42_128)"/>
<defs>
<linearGradient id="paint0_linear_42_128" x1="162.684" y1="266.14" x2="230.384" y2="446.309" gradientUnits="userSpaceOnUse">
<stop offset="0.125" stop-color="#9C6CFE"/>
<stop offset="1" stop-color="#7A41DC"/>
</linearGradient>
<linearGradient id="paint1_linear_42_128" x1="242" y1="220.402" x2="337.711" y2="518.455" gradientUnits="userSpaceOnUse">
<stop stop-color="#885EDB" stop-opacity="0"/>
<stop offset="1" stop-color="#E362F8"/>
</linearGradient>
<linearGradient id="paint2_linear_42_128" x1="198.379" y1="67.4878" x2="283.17" y2="202.887" gradientUnits="userSpaceOnUse">
<stop offset="0.125" stop-color="#9C6CFE"/>
<stop offset="1" stop-color="#7A41DC"/>
</linearGradient>
</defs>
</svg>
