<?xml version="1.0" encoding="UTF-8"?>
<svg id="Calque_2" xmlns="http://www.w3.org/2000/svg" viewBox="0 0 3871.62 1572.35">
  <defs>
    <style>
      .cls-1 {
        fill: #fff;
      }

      .cls-2 {
        fill: #040404;
      }
    </style>
  </defs>
  <g id="Calque_1-2" data-name="Calque_1">
    <g>
      <path class="cls-2" d="M2686.64,1436.1c-4.08-3.98-8.3-7.2-12.48-10.47-1.13-.88-2.45-1.06-3.76-.55-3.1,1.22-6.18,2.48-9.24,3.78-19.91,8.48-39.54,17.55-59.14,26.72-13.56,6.34-27.29,12.33-40.96,18.46-1.52.68-3.12,1.16-4.66,1.79-2.53,1.02-4.76,0-6.46-1.54-2.86-2.58-4.13-6-3.58-9.92.29-2.04,1.11-3.88,2.75-5.17,1.29-1.02,2.68-1.98,4.16-2.68,2.7-1.29,5.47-2.44,8.25-3.55,20.09-8.03,39.94-16.62,59.57-25.71,9.66-4.48,19.11-9.4,28.62-14.18.51-.25,1.19-1.27,1.08-1.44-.49-.72-1.19-1.35-1.94-1.82-.54-.34-1.26-.4-1.91-.53-6.37-1.2-12.52-.56-18.65,1.65-17.22,6.19-34.55,12.05-51.22,19.69-12.43,5.7-25.69,9.12-38.57,13.61-.92.32-1.96.38-2.95.44-2.56.16-4.65-.91-5.93-3.02-1.56-2.56-2.63-5.36-2.65-8.47-.02-2.6,1.14-4.51,3.28-5.77,1.13-.66,2.45-1.01,3.72-1.41,2.54-.78,5.09-1.59,7.67-2.23,14.91-3.69,29.19-9.1,43.18-15.39,12.14-5.45,24.37-10.71,36.56-16.06,1.22-.54,1.32-2.33.15-3.22-3.44-2.63-6.97-5.15-10.35-7.86-2.27-1.82-4.42-2.3-7.35-1.36-8.24,2.62-16.61,4.84-24.92,7.25-3.85,1.12-7.45,2.71-10.91,4.81-25.92,15.69-52.11,30.92-78.72,45.43-2.72,1.48-5.04,3.11-5.91,6.3-.57,2.08-2.27,3.32-4.08,4.16-4.52,2.11-9.11,4.07-13.69,6.06-10.37,4.51-20.65,9.23-31.46,12.69-7.32,2.35-14.03,6.08-20.64,9.96-6.89,4.04-13.73,8.17-20.74,11.99-3.76,2.05-7.65,3.81-11.93,4.89-15.49,3.89-30.89,8.14-46.3,12.34-6.1,1.66-12.19,3.36-18.17,5.41-3.18,1.09-6.33,2.09-9.65,2.41-4.68.45-9.14,1.69-13.56,3.23-6.91,2.41-13.92,4.55-20.81,7-3.47,1.23-6.57,1.14-9.26-1.47-2.01-1.95-4.11-1.7-6.45-.9-7.56,2.56-15.18,4.97-22.7,7.65-2.99,1.07-5.9,1.65-8.6-.13-4.14-2.73-7.96-1.95-12.17-.1-7,3.08-14.17,5.78-21.31,8.53-1.83.71-3.8,1.21-5.75,1.44-1.98.24-4.19.15-5.67-1.36-2.99-3.06-5.79-1.92-8.85-.21-5.81,3.25-11.68,6.4-17.57,9.5-2.05,1.08-4.2,2.02-6.36,2.85-2.84,1.09-5.27.01-7.27-1.97-2.43-2.41-3.88-5.34-4.33-8.8-.18-1.41-1.63-2.06-3.08-1.72-9.39,2.21-18.78,4.43-28.17,6.66-.97.23-1.92.56-2.9.76-3.4.69-6.63.62-9.3-2.07-1.35-1.36-2.81-1.27-4.48-.37-7.32,3.96-14.67,7.86-22.04,11.72-2.65,1.39-5.38,2.62-8.09,3.9-2.83,1.33-6.08.22-8.04-2.26-1.41-1.79-2.27-4.02-3.35-6.07-1.02-1.95-1.7-2.24-3.98-1.43-7.21,2.57-14.46,5.04-21.6,7.8-4.06,1.56-9.07-1.79-9.9-5.88-.71-3.55.05-6.74,2.9-9.01,2.06-1.64,4.51-2.78,6.78-4.14.28-.17.58-.31.81-.52.24-.22.42-.52.62-.78-.6-.17-1.24-.56-1.78-.46-1.29.24-2.57.63-3.8,1.11-8.37,3.26-16.71,6.58-25.08,9.85-3.1,1.21-6.25,2.29-9.32,3.56-2.69,1.11-6.56.26-8.75-2.96-1.12-1.65-2.12-3.39-2.26-5.47-.08-1.27,0-2.61-1.42-3.6-6.99,2.78-14.1,5.62-21.22,8.42-3.09,1.22-6.22,2.35-9.32,3.57-3.24,1.28-5.88.18-8.12-2.11-1.15-1.17-2.02-2.61-3.17-4.12-7.66,3.55-15.18,7.06-22.72,10.52-3.02,1.39-6.06,2.75-9.15,3.98-2.81,1.12-6.03.15-8.05-2.31-1.5-1.82-2.68-3.83-2.83-6.26-.08-1.32-.03-2.66-1.3-3.85-8.75,2.72-17.7,5.25-26.46,8.35-4.55,1.61-10.26-2.03-10.48-7.51-.09-2.39.42-4.59,1.23-6.8.09-.25-.79-1.23-1.04-1.17-3.53.95-7.05,1.96-10.53,3.08-4.12,1.33-8.19,2.78-12.29,4.18-2.49.85-4.56.17-6.29-1.74-.22-.25-.46-.49-.62-.78-1.06-1.86-2.46-1.68-4.19-.92-6.4,2.81-12.83,5.54-19.26,8.27-2.45,1.04-5.01,1.84-7.39,3.02-5.76,2.87-11.15-2.32-11.46-7.2-.1-1.64.18-3.31.26-4.97.05-1-.93-1.77-1.92-1.53-6.13,1.53-12.26,3.08-18.39,4.61-1.62.4-3.24.78-4.87,1.11-3.67.75-6.56-.28-8.41-3.69-.16-.29-.36-.56-.53-.85-.53-.9-1.19-1.53-2.36-1.19-9.25,2.75-18.5,5.48-27.74,8.25-4.22,1.27-8.37,2.21-12.56-.25-.68-.4-2-.19-2.81.2-5.41,2.57-10.76,5.27-16.14,7.91-2.69,1.32-5.37,2.68-8.13,3.83-4.59,1.92-9.66-.8-10.71-5.74-.27-1.26-.03-2.63-.06-3.95-.03-1.94-.59-2.52-2.14-2.16-7.13,1.66-14.26,3.33-21.39,5.01-.97.23-1.95.46-2.9.76-2.85.91-5.24.07-7.27-1.94-1.16-1.15-2.2-2.41-3.17-3.48-12.56,4.44-24.79,8.76-37.03,13.08-.63.22-1.26.44-1.87.71-4.76,2.11-10.39-2.49-10.3-7.56.04-2.41.55-4.58,2.06-6.52.29-.38.09-1.15.12-1.73-.58,0-1.21-.16-1.74,0-7.91,2.57-15.8,5.19-23.7,7.8-1.9.63-3.78,1.28-5.66,1.97-2.86,1.04-5.29.13-7.32-1.82-1.17-1.13-1.91-2.7-2.97-3.95-.66-.78-1.67-1.16-2.7-.76-2.47.98-4.91,2.03-7.36,3.06-2.76,1.17-5.47,2.47-8.29,3.45-1.17.41-2.62.32-3.87.08-1.28-.24-2.44-1.2-3.72-1.39-4.95-.73-7.66-3.58-8.6-8.38-.17-.88-1.53-1.3-2.45-.92-4.93,2.01-9.89,3.95-14.78,6.06-3.51,1.51-6.48.92-9.09-1.8-.46-.48-.92-.97-1.41-1.41-.77-.7-1.68-1-2.7-.63-3.61,1.31-6.58.21-8.91-2.6-1.57-1.9-3.29-1.8-5.34-1.15-4.13,1.3-8.34,2.32-12.42,3.77-2.86,1.02-5.65.71-7.43-1.3-3.8-4.27-7.91-3.98-12.66-2.24-9.37,3.44-18.82,6.67-28.23,9.98-1.57.55-3.22.93-4.71,1.66-3.7,1.81-8.03-.13-9.97-4.07-.87-1.76-1.29-3.74-2.09-5.55-.18-.41-1.18-.81-1.64-.67-4.45,1.36-8.9,2.76-13.28,4.32-2.84,1.01-5.23.28-7.46-1.42-.79-.6-1.41-1.4-2.14-2.08-.82-.77-1.82-.78-2.77-.41-4.96,1.93-9.89,3.94-14.86,5.84-2.48.95-4.98,1.9-7.55,2.55-2.45.61-4.6-.33-6.24-2.23-.65-.75-1.19-1.62-1.59-2.53-.61-1.39-1.55-2.11-3.06-1.82-3.66.69-6.48-.47-8.67-3.52-.49-.68-1.67-1.13-2.57-1.2-1.98-.16-4.05-.32-5.98.05-4.71.92-9.28.29-13.87-.6-2.29-.44-4.59-.79-6.9-1.12-6.41-.93-12.52-.33-18.34,2.94-2.87,1.61-6.14,2.54-9.27,3.66-2.45.88-4.61-.08-6.48-1.58-1.02-.82-1.84-1.93-2.59-3.03-1.34-1.95-3.08-2.34-5.21-1.68-6.67,2.07-13.35,4.14-20.02,6.22-.95.3-1.9.63-2.83,1-4.98,1.98-9.16,1.35-11.98-3.66-.97-1.72-2.44-2.09-4.21-1.63-7.73,2.01-15.46,4.02-23.18,6.05-4.42,1.16-7.12-.14-8.43-4.43-.57-1.88-.66-3.92-.97-5.88-.19-1.17-.91-1.61-2.02-1.15-6.44,2.7-12.87,5.45-19.32,8.13-3.07,1.28-6.16,2.54-9.29,3.65-2.84,1.01-5.39-.01-7.22-2.11-4.57-5.21-5.55-11.59,2.52-15.37,14.46-6.78,28.73-13.97,43.78-19.41,3.75-1.36,7.42-2.95,11.07-4.54.24-.11.27-1.22.07-1.74-.53-1.32-2.15-2.24-3.14-1.99-1.28.33-2.61.59-3.81,1.1-14.08,6-28.11,12.11-42.22,18.04-13.19,5.54-26.45,10.92-39.69,16.33-1.54.63-3.13,1.16-4.75,1.52-2.83.64-5.32-.19-7.14-2.43-1.02-1.27-1.9-2.76-2.45-4.29-1.5-4.23.09-8.14,4.01-10.07,1.78-.88,3.66-1.61,5.53-2.27,20.1-7.11,39.6-15.63,58.78-24.92,6.59-3.19,13.32-6.08,19.98-9.12,1.22-.56,1.58-2.07.86-3.38-2.4-4.38-4.76-8.78-7.24-13.11-.98-1.71-2.19-3.32-3.42-4.87-1.2-1.52-2.76-1.88-4.38-1.18-3.06,1.32-6.11,2.64-9.14,4.01-15.48,6.96-31.04,13.73-46.85,19.92-4.98,1.95-10.04,3.47-15.22,4.69-10.69,2.5-21.37,5.06-32.05,7.59-.97.23-1.94.46-2.92.62-2.96.47-6.25-1.29-7.29-4.08-.58-1.54-.94-3.2-1.12-4.84-.42-3.87,1.17-6.57,4.71-7.83,3.13-1.11,6.33-2.05,9.54-2.89,17.71-4.65,35.29-9.72,52.52-15.94,4.69-1.69,9.38-3.4,13.96-5.36,8.87-3.8,17.67-7.77,26.47-11.72,3.12-1.4,3.81-2.9,3.09-6.39-.27-1.29-.59-2.6-1.08-3.82-1.22-3.1-2.51-6.16-3.83-9.22-.87-2.01-2.66-2.82-4.94-2.25-1.61.4-3.21.86-4.78,1.41-24.87,8.69-48.85,19.41-72.03,31.91-4.39,2.37-8.78,4.75-13.21,7.06-2.06,1.07-4.2,1.99-6.32,2.97-2.77,1.29-5.23.53-7.39-1.31-2.38-2.03-3.6-4.75-4.05-7.8-.25-1.72.28-3.34,1.41-4.64.87-.99,1.84-1.96,2.94-2.67,1.67-1.08,3.49-1.94,5.25-2.88,16.73-8.95,33.47-17.88,50.2-26.85,3.53-1.9,7.2-3.34,11.05-4.52,10.81-3.33,21.52-6.98,32.24-10.59,1.85-.62,2.4-1.82,1.5-3.99-1.53-3.68-3.09-7.35-4.66-11.02-.26-.61-.56-1.21-.89-1.79-.8-1.43-2.48-1.94-4.16-1.21-7.32,3.2-14.64,6.38-21.93,9.66-7.9,3.55-15.87,6.87-24.09,9.62-15.79,5.29-31.08,11.87-46.45,18.22-2.15.89-4.25,1.96-6.47,2.62-1.55.46-3.3.62-4.91.43-1.22-.14-2.64-.78-3.47-1.67-1.33-1.43-2.49-3.14-3.26-4.93-1.58-3.65-.26-7.48,3.04-9.57,1.12-.71,2.3-1.35,3.49-1.94,1.79-.88,3.63-1.67,5.44-2.52,8.13-3.83,16.11-8.03,24.42-11.41,8.31-3.38,17.23-4.93,25.83-7.49,5.45-1.62,10.72-3.52,15.83-5.99,6.59-3.19,13.27-6.19,19.9-9.3,3.01-1.41,5.95-2.91,9.19-3.82,2.99-.84,3.5-2.29,2.31-5.11-1.3-3.06-2.64-6.11-3.99-9.15-.41-.93-2.25-1.74-3.44-1.45-1.6.39-3.24.75-4.75,1.39-7.64,3.28-15.23,6.7-22.88,9.96-3.67,1.56-7.38,3.07-11.19,4.23-19.41,5.93-38.87,11.71-58.28,17.63-2.9.88-5.76,1.62-8.8,1.49-3.27-.14-5.57-1.53-7.08-4.58-3.12-6.31.74-12.06,5.66-13.83,2.19-.79,4.47-1.31,6.74-1.84,6.81-1.58,13.66-2.99,20.44-4.68,5.16-1.28,10.25-2.78,15.22-4.75,14.54-5.76,29.16-11.3,43.76-16.9.75-.29,1.25-.68.9-1.44-.21-.45-.87-.91-1.37-.96-1.65-.16-3.33-.16-4.99-.17-17.63-.13-17.71-.39-34.24,5.11-16.45,5.48-33.37,9.12-50.09,13.56-7.06,1.88-9.79-.97-11.17-7.66-.26-1.27.02-2.64.03-3.97,0-2.14-1.03-2.8-3.12-1.89-6.71,2.92-13.4,5.89-20.11,8.82-2.13.93-4.24,1.98-6.45,2.66-1.55.48-3.29.67-4.89.51-1.23-.12-2.65-.74-3.51-1.61-1.61-1.65-2.91-3.62-4.28-5.5-.94-1.28-2.25-1.44-3.54-1.06-7.02,2.08-14.08,4.05-20.98,6.49-3.57,1.27-7.12,1.95-10.76,1.41-5.12-.75-9.88.27-14.73,1.71-9.57,2.84-19.21,5.44-28.82,8.14-.96.27-1.93.54-2.9.76-2.57.59-5.41-1.06-6.26-3.72-.92-2.87-1.61-5.73-.53-8.8.51-1.44-.66-2.26-2.35-1.86-7.12,1.69-14.24,3.4-21.36,5.09-1.3.31-2.6.62-3.91.81-3.98.56-6.97-.32-8.57-4.9-.22-.63-.51-1.23-.81-1.82-.64-1.25-1.81-1.7-3.34-1.27-7.68,2.2-15.35,4.41-23.02,6.62-.64.18-1.25.47-1.87.69-4.08,1.47-7.82,1.81-10.48-2.65-.3-.5-1.91-.64-2.68-.35-3.41,1.31-6.73,2.88-10.11,4.28-1.53.63-3.1,1.23-4.71,1.6-3.25.76-5.87-.4-7.89-2.99-1.47-1.89-2.27-4.02-2.53-6.41-.04-.37-1.07-.99-1.53-.9-3.27.6-6.53,1.28-9.76,2.06-7.44,1.79-14.86,3.65-22.3,5.48-.65.16-1.3.31-1.95.44-3.19.66-5.83-.07-8.05-2.64-1.78-2.07-3.12-1.68-3.98.96-3.17,9.8-6.68,19.49-8.59,29.69-1.16,6.2-3.19,12.21-5.51,18.12-6.58,16.74-13.94,33.11-21.94,49.22-5.11,10.3-12.03,19.13-20.55,26.78-5.47,4.91-11.37,9.27-17.61,13.11-7.14,4.39-14.79,7.49-23.15,8.9-6.89,1.16-13.68,2.86-20.54,4.21-14.08,2.76-28.28,4.48-42.65,4.76-4,.08-7.98.5-11.98.68-4.04.18-7.96,1.06-11.7,2.45-24.33,9.04-49.07,16.93-73.22,26.45-8.36,3.29-16.81,6.36-25.12,9.76-3.29,1.34-7.02.43-9.56-3.08-3.33-4.6-2.46-8.66,1.29-12.49.15-.15.19-.62.08-.75-.21-.22-.57-.34-.89-.42-.31-.08-.67-.15-.97-.07-7.4,1.94-15.01,3.3-22.13,5.99-11.82,4.46-23.85,8.36-35.61,12.97-3.37,1.32-6.95.36-9.41-3.38-.72-1.1-1.28-2.34-1.75-3.58-.62-1.62-.58-3.27.34-4.8.51-.85,1-1.77,1.7-2.45.78-.75,1.38-1.89.85-2.45-.5-.53-1.87-.42-2.83-.3-1.65.21-3.27.6-4.89.99-7.44,1.79-14.88,3.62-22.32,5.4-.96.23-1.96.46-2.93.42-1.73-.07-3.3-.75-4.17-2.33-1.6-2.92-2.74-6-2.98-9.38-.02-.35-1.03-.91-1.55-.89-1.31.06-2.64.3-3.92.64-9.32,2.51-18.65,4.97-27.92,7.65-3.63,1.05-6.59.49-8.99-2.37-1.49-1.79-3.2-2.08-5.33-1.53-9.66,2.52-19.33,4.99-29.01,7.46-1.28.33-2.59.7-3.9.74-1.72.06-3.35-.54-4.31-2.06-1.05-1.68-1.82-3.55-2.86-5.24-.28-.46-1.09-.75-1.69-.81-.62-.07-1.3.19-1.93.39-12.11,3.73-24.6,5.86-36.88,8.85-4.2,1.02-8.41,2.02-12.63,2.97-2.61.59-5.5-1.04-6.37-3.6-1.08-3.17-1.99-6.37-.88-9.77.06-.18-.88-1.01-1.27-.96-.96.13-1.89.55-2.79.94-7.63,3.32-15.24,6.69-22.87,9.99-2.75,1.19-5.53,2.31-8.34,3.33-3.59,1.29-7.44-.23-9.25-3.75-.74-1.44-1.26-3.1-1.44-4.71-.5-4.32-.73-4.15-4.96-2.89-7.33,2.18-14.71,4.24-22.06,6.35-1.6.46-3.18,1.06-4.81,1.32-1.73.28-3.31-.42-4.48-1.69-.65-.71-.97-1.72-1.45-2.58-1.26-2.25-1.91-2.63-3.78-2.06-5.09,1.55-10.17,3.15-15.26,4.69-1.59.48-3.2.95-4.83,1.26-2.9.54-5.36-.48-6.96-2.86-1.09-1.61-1.92-3.52-2.35-5.41-.44-1.91-.33-3.97-.31-5.97.03-2.99,1.71-5.01,4.33-6.14,2.13-.92,4.38-1.59,6.61-2.27,19.41-5.92,38.85-11.75,58.24-17.77,6.34-1.97,12.54-4.41,18.8-6.65.79-.28.82-1.69.08-2.4-.47-.46-.91-.96-1.42-1.37-9.09-7.31-18.18-14.61-27.28-21.9-1.4-1.12-2.79-1.27-4.55-.41-5.08,2.49-10.32,4.64-15.4,7.13-8.08,3.97-16.33,7.45-25,9.97-14.1,4.1-27.46,10.11-40.87,15.96-3.35,1.46-6.65,3.07-10.04,4.44-1.52.61-3.18,1.01-4.81,1.15-2.06.17-3.93-.56-5.35-2.18-2.04-2.33-3.6-4.95-3.07-8.13.43-2.6-.51-4.38-2.09-6.29-1.81-2.2-1.83-4.87-.97-7.59.64-2.01,1.71-3.62,3.64-4.51,1.51-.69,3.08-1.24,4.64-1.79,10.98-3.88,21.95-7.8,32.96-11.58,3.8-1.31,7.45-2.86,10.88-4.94.85-.52,1.74-.98,2.61-1.48,5.49-3.15,10.96-6.33,16.47-9.43,5.54-3.12,11.89-4.2,17.6-6.91,2.4-1.14,4.88-2.13,7.33-3.16,1.35-.57,2.01-1.58,2.17-3.02.29-2.65.71-5.28.91-7.94.03-.4-.87-1.25-1.31-1.23-1.64.07-3.34.22-4.91.69-17.53,5.24-35.14,10.26-52.4,16.36-2.2.78-4.4,1.54-6.63,2.21-6.28,1.9-9.55.26-11.55-5.77-.42-1.26-.82-2.54-1.11-3.83-.52-2.31,1.14-5.77,3.21-6.84.59-.3,1.19-.59,1.81-.82,1.56-.58,3.16-1.05,4.7-1.68,18.57-7.63,38.14-11.68,57.57-16.23,3.23-.76,6.49-1.59,9.54-2.87,6.59-2.77,5.27-1.04,7.81-7.93.92-2.49,1.78-5.01,2.64-7.52.08-.25-.04-.6-.15-.88-.32-.79-.87-.99-1.6-.66-6.06,2.75-12.16,5.4-18.16,8.27-14.43,6.91-29.57,12.06-44.43,17.9-.62.24-1.25.45-1.89.64-4.02,1.21-7.19-.29-9.78-3.25-3.46-3.94-2.87-10.28,1.33-13.28,1.59-1.14,3.46-1.99,5.31-2.67,8.43-3.09,16.93-6.01,25.36-9.13,4.68-1.73,9.27-3.67,13.87-5.62,2.76-1.17,5.44-2.5,8.15-3.79,9.61-4.57,19.08-9.47,29.31-12.6,1.73-.53,2.7-1.67,3.22-3.43,1.44-4.87,2.02-9.77,1.05-14.79-.3-1.57-2.15-2.99-3.65-2.7-1.95.39-3.9.8-5.82,1.33-18.92,5.27-37.6,11.29-56.23,17.48-2.52.84-5.08,1.6-7.67,2.12-2.73.55-5.43-.94-6.62-3.38-.58-1.19-1.12-2.41-1.52-3.67-1.75-5.57-.61-7.68,4.98-9.83,8.69-3.35,17.43-6.59,25.99-10.27,2.77-1.19,5.5-2.13,8.41-2.85,5.48-1.34,10.91-2.93,16.34-4.51,11.5-3.35,22.95-6.87,34.48-10.1,2.92-.82,4.59-2.43,5.56-5.11,1.02-2.78,2.1-5.54,3.11-8.33.02-.07-.52-.48-.81-.49-.65-.03-1.37-.07-1.94.18-18.7,7.92-37.13,16.4-55.12,25.82-.59.31-1.31.53-1.71,1.01-1.55,1.89-3.52,1.44-5.51,1.22-2.08-.23-3.95-.99-5.15-2.71-1.51-2.17-2.88-4.46-4.11-6.8-1.02-1.93-.15-4.87,1.75-6.27,1.33-.98,2.74-1.88,4.22-2.6,6.6-3.16,13.26-6.21,19.87-9.37,3.56-1.7,7.43-2.79,10.17-6.06.96-1.15,2.86-1.62,4.41-2.17,8.15-2.9,16.37-5.61,24.48-8.6,5.61-2.07,11.11-4.47,16.63-6.79,1.98-.83,3.14-2.45,3.45-4.57.29-1.97.47-3.96.63-5.94.12-1.46-1.16-2.31-2.66-1.81-2.21.74-4.41,1.5-6.63,2.2-14.92,4.73-29.56,10.2-44.01,16.21-2.45,1.02-4.91,2.11-7.46,2.82-7.23,2.02-12.44-2.91-13.4-9.64-.3-2.09.48-3.99,2.15-5.33,1.28-1.03,2.63-2.12,4.13-2.73,10.8-4.36,21.56-8.82,32.5-12.81,5.92-2.16,12.07-3.93,18.26-5.04,10.46-1.87,19.19-7.32,28.13-12.44,1.06-.61,2.05-1.82,2.47-2.97,1.24-3.43,2.25-6.96,3.21-10.49.59-2.19,1.9-4.8-.27-6.51-1.63-1.29-3.82.09-5.67.73-7.85,2.74-15.71,5.47-23.51,8.35-3.74,1.38-7.4,2.98-11.02,4.64-9.08,4.16-18.12,8.39-27.15,12.66-2.13,1.01-4.26,1.84-6.66,1.86-2.55.02-4.71-.88-5.8-3.16-1.14-2.37-2.04-4.91-2.67-7.47-.7-2.83.41-5.3,2.68-7.06,1.3-1,2.8-1.8,4.32-2.43,9.83-4.09,19.54-8.56,29.59-12.02,11.65-4.02,22.92-8.91,34.33-13.5,3.08-1.24,6.2-2.23,9.5-2.92,4.87-1.02,9.58-2.79,14.37-4.17,3.15-.91,5.22-2.58,5.5-6.15.12-1.6.95-3.14,1.41-4.73.07-.26-.15-.6-.24-.9-.29-.9-.7-.8-1.55-.45-9.6,3.88-19.73,5.97-29.67,8.68-5.15,1.4-10.19,3.05-15.11,5.09-9.53,3.95-19.13,7.74-28.63,11.76-3.3,1.4-7.02.36-9.39-3.33-1.11-1.73-1.67-3.61-1.85-5.63-.25-2.89,1.06-5.45,3.49-6.64,1.19-.58,2.45-1,3.68-1.51,7.38-3.06,14.8-6.02,22.11-9.23,9.47-4.15,19.56-6.47,29.16-10.23,11.78-4.61,23.95-8.11,36.06-11.73,2.96-.89,4.53-2.54,5.53-5.12,1.69-4.34,3.29-8.71,4.99-13.04.32-.8.31-1.36-.47-1.63-.58-.2-1.33-.47-1.82-.27-3.68,1.52-7.37,3.04-10.96,4.78-7.79,3.78-15.53,7.64-23.24,11.56-3.29,1.67-6.65,2.88-10.28,3.7-10.38,2.35-20.69,5.03-31.04,7.54-.96.23-2,.34-2.97.24-1.32-.13-2.54-.59-3.41-1.78-2.04-2.79-2.83-6.03-3.16-9.33-.16-1.64.75-3.37,2.33-4.16,2.07-1.04,4.27-1.85,6.48-2.55,8.88-2.81,17.8-5.5,26.68-8.3,2.54-.8,5.08-1.65,7.49-2.76,7.86-3.61,15.87-6.99,23.44-11.14,6.21-3.41,12.68-5.67,19.52-7.14,2.6-.56,5.17-1.29,7.75-1.92,2.09-.51,3.5-1.71,4.27-3.77.82-2.17,1.81-4.28,2.71-6.43.31-.74-.68-2.38-1.36-2.28-4.61.69-9.24,1.3-13.27,3.94-.83.55-1.76.95-2.62,1.46-19.24,11.53-40.26,19.06-61.06,27.06-.92.36-1.91.76-2.87.76-1.29,0-2.73-.09-3.86-.64-3.67-1.79-5.8-5.92-5.27-9.93.22-1.69.95-3.27,2.43-4.2,1.96-1.23,3.97-2.42,6.09-3.33,6.42-2.75,12.88-5.42,19.38-8,9.29-3.69,18.34-7.88,27.06-12.78,4.93-2.77,9.81-5.73,15.02-7.89,5.19-2.15,10.76-3.39,16.15-5.06,4.45-1.37,8.91-2.72,13.31-4.23.85-.29,1.72-1.16,2.12-1.98,1.2-2.47,1.45-5.08.59-7.75-.47-1.45-2.48-2.63-4.01-2.25-1.29.32-2.59.62-3.83,1.08-8.11,3.02-16.23,6.01-24.28,9.17-3.71,1.46-7.31,3.21-10.89,4.97-8.07,3.96-16.05,8.09-24.15,11.99-6.75,3.25-10.55,1.78-13.57-4.97-.41-.9-.7-1.87-.96-2.83-1.02-3.84.48-7.37,4.05-9.21,2.36-1.21,4.81-2.3,7.27-3.3,16.95-6.9,33.97-13.64,50.86-20.68,10.74-4.48,21.3-9.41,31.94-14.15,1.89-.84,3.25-2.16,4.02-4.17.83-2.17,1.93-4.24,2.86-6.37.07-.16-.13-.52-.3-.68-.23-.21-.61-.51-.83-.44-1.57.48-3.18.91-4.65,1.61-7.24,3.46-14.8,5.98-22.57,7.89-1.62.4-3.25.74-4.87,1.12-14.31,3.37-27.79,9.13-41.54,14.14-2.5.91-4.93,2.05-7.48,2.78-2.4.69-4.57-.09-6.4-1.85-2-1.92-3.08-4.32-3.71-6.94-.54-2.26,1-5.74,3.12-6.88,1.46-.78,3-1.42,4.55-2,18.67-7.05,37.34-14.14,56.4-20.09,1.91-.59,3.83-1.18,5.66-1.97,10.08-4.35,20.13-8.78,30.2-13.16,1.91-.83,3.35-2.05,4.18-4.03,1.8-4.28,3.69-8.53,5.51-12.8.33-.77-.79-2.03-1.59-1.82-3.54.93-7.08,1.83-10.6,2.84-18.54,5.35-37.06,10.77-55.61,16.08-8,2.29-16.05,4.4-24.09,6.52-1.92.51-3.91.9-5.89.98-1.27.06-2.73-.25-3.82-.89-2.94-1.71-5.83-9.63-2.25-13.37.68-.71,1.43-1.5,2.31-1.84,2.47-.98,5.01-1.8,7.55-2.58,19.09-5.85,38.24-11.5,57.26-17.56,14.58-4.64,28.99-9.79,43.48-14.71,1.63-.56,2.98-1.53,3.86-3,2.91-4.85,5.61-9.82,7.55-15.16.19-.52.05-1.39-.29-1.8-.32-.38-1.18-.59-1.7-.47-3.23.78-6.4,1.88-9.66,2.51-11.89,2.29-22.93,6.77-33.47,12.6-8.2,4.53-16.82,7.88-25.92,10.22-7.72,1.99-15.27,4.63-22.91,6.96-.95.29-1.94.52-2.93.57-1.75.09-3.38-.5-4.31-2.01-.86-1.39-1.45-2.97-2.04-4.51-2.57-6.68.24-9.71,5.61-11.45,4.12-1.33,8.18-2.82,12.26-4.24,13.51-4.71,26.97-9.57,39.98-15.57,4.83-2.23,9.86-3.87,15-5.31,9.6-2.7,19.1-5.82,28.59-8.88,3.16-1.02,6.18-2.45,9.3-3.61,2.02-.75,3.29-2.09,4.01-4.11.55-1.54,1.35-3,2.02-4.5.13-.29.27-.88.24-.89-.6-.23-1.3-.68-1.85-.54-8.39,2.11-16.76,4.26-25.12,6.49-2.57.68-5.04,1.76-7.61,2.4-14.33,3.57-27.61,9.56-40.38,16.89-4.32,2.48-8.89,4.52-13.36,6.72-2.5,1.23-6.41.5-8.64-3.07-1.2-1.93-1.92-4.23-2.48-6.46-.75-3.01,1.07-6.99,3.8-8.64,1.7-1.03,3.52-1.87,5.34-2.68,7.3-3.24,14.61-6.44,21.93-9.66,1.52-.67,3.2-1.11,4.54-2.04,5.06-3.49,10.86-4.88,16.68-6.26,15.89-3.76,31.32-9.07,46.73-14.38,6.58-2.27,12.88-5.41,19.23-8.32,1.12-.51,2.24-1.65,2.73-2.78,2.29-5.16,4.8-10.25,5.99-15.81.06-.3-.92-1.22-1.22-1.14-1.92.51-3.84,1.08-5.65,1.89-7.9,3.53-15.74,7.19-23.63,10.74-12.75,5.73-25.52,11.42-38.29,17.08-2.13.94-4.31,1.82-6.54,2.44-11.22,3.14-22.46,6.19-33.69,9.26-.96.26-1.95.54-2.93.54-2.47.01-4.52-.96-5.98-3.02-1.79-2.53-2.3-5.5-2.7-8.46-.26-1.94,1.46-5.04,3.29-5.77,2.15-.86,4.36-1.64,6.61-2.18,8.73-2.11,17.48-4.16,26.25-6.13,3.6-.81,7.07-1.88,10.25-3.8.57-.34,1.2-.58,1.78-.91,15.86-9.26,32.53-16.71,49.9-22.66,2.83-.97,5.57-1.94,7.92-4.03,1.4-1.24,3.52-1.79,5.4-2.36,4.14-1.25,8.28-2.58,12.52-3.4,5-.96,5.96-4.62,6.65-8.67.15-.86-1.14-2.02-1.93-1.72-1.54.59-3.11,1.12-4.59,1.81-17.78,8.34-35.54,16.7-53.31,25.06-.6.28-1.27.45-1.82.81-6.79,4.44-14.45,6.57-22.16,8.68-7.06,1.93-14,4.25-21.01,6.37-3.02.91-6.11-.05-7.92-2.7-1.1-1.62-2-3.47-2.57-5.34-.9-2.99.6-6.27,3.22-7.69.87-.47,1.78-.9,2.7-1.25,1.55-.6,3.11-1.2,4.69-1.69,21.34-6.64,41.76-15.53,61.84-25.27,13.18-6.39,26.45-12.58,39.68-18.86,1.8-.86,3.55-1.85,5.39-2.61,5.41-2.23,8.76-5.84,8.68-12.06-.03-2.31.47-4.62.54-6.94.01-.45-.88-1.36-1.31-1.33-2.32.17-4.65.42-6.92.91-7.16,1.54-14.28,3.24-21.44,4.79-4.9,1.06-9.54,2.74-14.16,4.71-16.84,7.19-33.44,14.88-49.73,23.26-2.07,1.06-4.16,2.12-6.34,2.89-3.81,1.35-7.29-.02-9.52-3.41-1.13-1.71-1.81-3.56-1.93-5.59-.15-2.46.49-4.68,2.58-6.16,1.62-1.14,3.34-2.17,5.11-3.07,6.53-3.32,13.11-6.53,19.63-9.87,2.35-1.2,4.84-2.15,6.76-4.16.84-.88,2.25-1.27,3.46-1.74,8.39-3.2,16.73-6.58,25.23-9.46,5.65-1.91,10.64-5.36,16.65-6.43,5.89-1.05,11.7-2.57,17.51-4.04,6.77-1.72,13.49-3.61,20.24-5.43,1.74-.47,2.93-1.45,3.22-3.33.46-2.95.97-5.9,1.41-8.86.18-1.18-1.39-2.46-2.67-2.15-10.04,2.38-20.09,4.68-30.09,7.23-3.2.81-6.27,2.19-9.34,3.46-16.31,6.74-32.27,14.24-48.23,21.75-2.11.99-4.13,2.23-6.32,2.94-1.85.6-3.9.8-5.87.81-2.05,0-3.93-.85-5.27-2.48-1.05-1.28-2.05-2.63-2.81-4.09-1.85-3.55-.86-7.62,2.4-9.68,1.96-1.24,4.08-2.25,6.2-3.18,15.85-6.94,31.66-13.97,47.78-20.29,6.19-2.43,12.44-4.63,18.84-6.52,13.08-3.86,26.02-8.18,39.04-12.28,1.76-.56,2.8-1.72,3.26-3.42.94-3.53,1.83-7.08,2.71-10.63.25-1-.79-1.99-1.76-1.78-.32.07-.67-.02-.98.07-.64.18-1.28.38-1.88.65-18.24,8.32-37.43,13.8-56.74,18.9-3.59.95-6.93,2.26-10.18,4-7.91,4.26-15.89,8.4-23.8,12.68-2.08,1.12-4.17,2.12-6.54,2.27-2.44.15-4.63-.57-6.17-2.59-.8-1.05-1.54-2.18-2.1-3.37-1.97-4.14-.92-8.04,2.81-10.45,1.39-.9,2.88-1.67,4.35-2.45,7.92-4.25,15.73-8.71,23.8-12.66,8.08-3.96,17-5.68,25.46-8.7,17.55-6.26,35.22-12.16,52.84-18.21,1.26-.43,2.55-.81,3.71-1.43.84-.45,1.83-1.11,2.16-1.92,1.12-2.78,2.03-5.65,1.61-8.74-.1-.77-1.35-1.61-2.21-1.36-14.38,4.18-28.57,8.94-42.69,13.91-16.01,5.62-32.13,10.91-48.15,16.52-4.23,1.48-7.42-.51-9.43-3.44-1.37-2-1.99-4.25-1.84-6.62.15-2.43,1.11-4.54,3.52-5.62,1.21-.54,2.43-1.07,3.68-1.49,5.99-2.02,11.98-4.04,17.99-6,10.76-3.51,21.47-7.13,31.76-11.9,10.29-4.77,20.96-8.49,31.79-11.79,6.68-2.04,13.33-4.2,19.98-6.34,1.53-.49,2.28-2.01,2.12-4.02-.14-1.79-.92-3.12-2.65-3.85-1.63-.68-3.27-.67-4.87-.08-1.87.69-3.68,1.52-5.49,2.37-6.93,3.25-13.9,6.43-20.75,9.83-4.81,2.39-9.82,4.02-15.03,5.17-10.07,2.24-20.13,4.54-30.2,6.81-.65.15-1.3.29-1.96.39-2.63.42-5.25-1.14-6.21-3.88-.55-1.55-.96-3.19-1.15-4.82-.44-3.93,1.1-6.52,4.7-7.8,3.45-1.22,6.96-2.27,10.46-3.32,8.92-2.69,17.98-4.96,26.72-8.12,8.43-3.06,16.5-7.1,24.78-10.58,9.54-4.01,18.34-9.43,27.46-14.26,1.59-.84,2.34-2.3,2.82-3.93,1.04-3.55,1.35-7.17,1.14-10.85-.05-.84-1.34-1.62-2.2-1.26-1.23.5-2.47.99-3.66,1.57-3.3,1.58-6.59,3.18-9.87,4.81-21.79,10.8-44.19,20.17-67.02,28.51-1.55.57-3.12,1.13-4.72,1.5-1.84.42-4.3-.74-5.04-2.42-.94-2.11-1.92-4.27-2.42-6.5-.54-2.4.3-4.73,2.2-6.3,1.51-1.25,3.31-2.21,5.11-3.01,4.57-2.02,9.18-3.93,13.82-5.77,12.38-4.92,24.52-10.36,36.56-16.06,13.54-6.41,27.13-12.7,40.72-18.99,1.99-.92,3.27-2.28,3.54-4.43.25-1.97.39-3.96.47-5.94.07-1.66-1.71-2.94-3.45-2.59-.98.2-1.96.37-2.93.63-1.61.42-3.19.98-4.81,1.35-13.33,3.08-26.24,7.39-38.76,12.92-5.17,2.29-10.38,4.52-15.68,6.48-6.82,2.51-13.66-2.3-14.06-9.69-.12-2.12.7-3.84,2.23-5.33,1.73-1.69,3.89-2.52,6.05-3.39,3.07-1.24,6.48-1.63,9.18-3.77-2.24-2.36-4.22-4.85-5.07-8.11-1.04-4.01.12-7.32,3.68-9.39,2.29-1.34,4.72-2.46,7.11-3.62,20.37-9.87,41.11-18.94,61.94-27.78.61-.26,1.27-.42,1.87-.7,8.56-4.07,8.02-1.72,8.97-13.21.07-.9-.54-1.23-1.28-.88-2.11.98-4.3,1.81-6.29,2.98-11.81,6.95-24.28,12.4-37.19,16.92-5.34,1.87-10.59,3.99-15.91,5.91-2.98,1.07-5.98.12-8.01-2.49-.81-1.04-1.49-2.21-2.06-3.4-1.6-3.29-.83-6.95,2.13-8.88,2.5-1.62,5.2-2.96,7.9-4.23,17.48-8.18,35.03-16.23,52.47-24.49,4.8-2.27,9.34-5.1,13.94-7.76.82-.47,1.7-1.27,2.03-2.12,2.03-5.27,4.21-10.51,4.82-16.21.08-.78-1.25-1.82-2.01-1.55-.93.34-1.91.56-2.81.97-14.91,6.68-30.39,11.79-45.89,16.85-3.48,1.14-6.94,2.35-10.46,3.36-3.75,1.08-7.48-.82-8.92-4.49-.72-1.85-1.29-3.78-1.76-5.72-.56-2.32,1.1-5.81,3.28-6.76,2.13-.93,4.35-1.66,6.55-2.43,20.75-7.21,41.38-14.72,61.78-22.87,1.85-.74,3.73-1.44,5.52-2.31.86-.42,1.84-1.05,2.27-1.85,1.86-3.51,4.08-6.91,4.35-11.02.03-.42-.65-1.11-1.13-1.28-.56-.2-1.3-.03-1.93.1-5.53,1.18-11.06,2.41-16.59,3.57-4.9,1.03-9.67,2.45-14.29,4.38-7.99,3.32-15.99,6.62-24,9.88-1.84.75-3.73,1.5-5.66,1.85-7.26,1.3-12.97-5.7-10.42-12.7.84-2.29,2.55-3.94,4.65-5.02,2.06-1.06,4.28-1.83,6.47-2.61,8.15-2.89,16.35-5.65,24.47-8.64,2.77-1.02,5.71-1.62,8.15-3.61,1.2-.98,3.03-1.28,4.62-1.7,10.28-2.75,20.59-5.44,30.86-8.22.88-.24,1.92-.89,2.32-1.65,1.39-2.66,2.57-5.44,2.67-8.5.01-.36-1-1.16-1.33-1.06-1.9.59-3.76,1.32-5.57,2.12-13.99,6.21-27.96,12.46-41.94,18.69-1.22.54-2.45,1.05-3.68,1.55-7.03,2.9-10.62,1.53-13.55-5.24-.53-1.21-.84-2.53-1.19-3.81-.46-1.69.64-4.48,2.07-5.25.88-.47,1.78-.89,2.7-1.28,2.45-1.05,4.89-2.12,7.37-3.09,17.07-6.65,33.86-13.9,50.05-22.49,3.85-2.04,7.73-3.8,12.18-4.19,2.83-.25,4.86-1.76,5.81-4.7,1.43-4.43,3.14-8.77,4.64-13.17.4-1.19,1.19-2.58.3-3.72-1.36-1.73-3.09-.39-4.52.02-10.56,3.02-21.05,6.22-31.16,10.58-7.03,3.03-14.12,5.91-21.19,8.84-1.84.76-3.7,1.52-5.6,2.1-2.43.74-4.66,0-6.51-1.6-4.29-3.7-4.07-9.48-.25-13.22,1.16-1.14,2.64-2.04,4.11-2.78,9.8-4.96,19.63-9.86,29.47-14.74,1.17-.58,2.47-.94,3.73-1.33,14.64-4.45,29.26-8.97,43.94-13.27,2.79-.82,4.82-2.01,5.8-4.8.32-.92,1.06-1.71,1.35-2.64.15-.48-.18-1.15-.4-1.69-.07-.17-.59-.31-.8-.22-4.62,1.89-9.25,3.75-13.82,5.74-6.71,2.94-13.51,5.58-20.58,7.58-7.04,1.99-13.95,4.43-20.94,6.58-2.22.68-4.5,1.24-6.79,1.6-3.12.49-5.69-1.39-6.8-4.58-.79-2.27-1.07-4.53-.38-6.85.7-2.33,1.97-4.25,4.28-5.23,1.84-.78,3.73-1.42,5.59-2.14,17.39-6.7,34.81-13.31,52.14-20.15,8.04-3.17,15.93-6.76,23.84-10.25,1.54-.68,2.71-1.9,3.12-3.67.53-2.27,1.2-4.51,1.63-6.8.24-1.29.15-2.64.15-3.97,0-1.86-1.73-3.21-3.33-2.54-5.22,2.17-10.39,4.47-15.64,6.58-15.12,6.09-30.27,12.13-45.42,18.15-1.85.73-3.8,1.25-5.73,1.72-2.27.55-5.85-1.06-6.87-3.12-.88-1.79-1.69-3.63-2.3-5.52-1.19-3.68.38-7.52,3.93-9.28,2.37-1.17,4.9-2.06,7.41-2.91,8.2-2.77,16.42-5.45,24.63-8.18,1.89-.63,3.82-1.2,5.66-1.96,15.7-6.46,31.32-13.08,46.37-20.98,2.22-1.16,3.65-2.76,4.31-5.15.71-2.56,1.47-5.1,2.19-7.66.35-1.23-1.11-2.3-2.52-1.88-.95.28-1.89.61-2.83.94-16.93,6-33.86,12.02-50.8,18.01-2.51.89-5,1.89-7.59,2.46-7.43,1.63-12.35-3-11.52-10.67.22-2.07,1.16-3.77,2.65-5.23,1.72-1.69,3.83-2.67,6.06-3.36,3.18-.98,6.41-1.78,9.63-2.65,10.94-2.95,21.7-6.38,32-11.16,2.11-.98,4.34-1.7,6.47-2.64,8.25-3.62,16.64-6.75,25.54-8.41,1.23-.23,2.81-.82,3.42-1.77,1.64-2.52,2.72-5.32,1.33-8.44-.91-2.05-2.82-3.08-4.76-2.27-14.45,5.99-28.89,11.98-43.31,18.03-7.36,3.09-14.68,6.29-21.98,9.53-2.19.97-4.39,1.49-6.77,1.45-2.18-.03-4.05-.9-4.92-2.83-1.08-2.39-1.86-4.95-2.5-7.51-.52-2.07.98-4.98,2.86-5.95,1.47-.76,3.02-1.39,4.55-2.02,20.32-8.32,40.66-16.64,60.63-25.76,9.08-4.15,17.95-8.75,26.92-13.13,1.55-.76,2.75-1.82,3.28-3.53.79-2.54,1.65-5.06,2.35-7.62.07-.26-.75-.84-1.23-1.14-.23-.14-.68-.07-.98.04-18.72,7.03-38.12,11.78-57.32,17.2-4.8,1.35-9.62,2.65-14.45,3.91-1.6.42-3.24.83-4.88.96-1.69.13-3.32-.44-4.57-1.64-1.97-1.88-3.37-4.07-3.72-6.87-.47-3.79,1.06-6.64,4.48-8.01,1.23-.49,2.5-.93,3.77-1.33,16.82-5.29,33.57-10.92,50.83-14.6,12.8-2.73,24.68-7.93,36.83-12.43,1.69-.62,2.89-1.82,3.45-3.39,1.56-4.38,2.93-8.82,4.35-13.25.24-.75-1.08-1.81-1.92-1.56-3.5,1.05-7.02,2.05-10.5,3.16-12.99,4.15-25.97,8.36-38.97,12.49-2.22.71-4.51,1.2-6.77,1.76-2.4.59-4.62-.08-6.75-1.11-.58-.28-1.16-.7-1.57-1.2-4.31-5.34-3.61-12.19,3.33-15.9,1.14-.61,2.53-.78,3.82-1.09,8.09-1.94,16.2-3.81,24.27-5.81,3.54-.88,7.12-1.77,10.52-3.07,11.18-4.3,22.29-8.78,33.42-13.21,2.88-1.14,4.8-2.95,6.26-5.96,8.6-17.75,21.23-32.06,37.42-43.39,9.88-6.92,20.06-13.06,31.54-16.94,8.89-3.01,17.99-4.8,27.36-5.28,20.32-1.03,40.65-.98,60.96.14,10.64.58,21.26,1.67,31.88,2.57,12.61,1.07,25.22,2.22,37.84,3.29,10.29.87,20.59,1.72,30.88,2.52,8.3.64,16.61,1.21,24.92,1.75,49.95,3.24,99.94,1.97,149.93,1.6,6.32-.05,12.63-.79,18.95-1.15,3.66-.21,7.32-.42,10.98-.43,18.67-.04,37.33-.02,56-.03,3.66,0,7.3.17,10.84-1.25,1.49-.6,3.25-.69,4.89-.7,4.33-.02,8.67-.03,12.99.23,17.63,1.08,35.25,2.35,52.69,5.21,27.37,4.47,50.06,17.45,68.16,38.39,6.36,7.36,10.99,15.83,14.75,24.8,3.21,7.67,6.6,15.26,9.94,22.88.86,1.95,1.96,2.36,3.96,1.49,8.85-3.86,17.68-7.74,26.52-11.62,1.37-.6,1.9-1.58,1.76-3.15-.03-.33-.11-.65-.18-.98-1.4-6.79,1.12-10.39,7.08-12.11,3.51-1.01,6.85-2.57,10.3-3.8,16.94-6.05,33.4-13.23,49.84-20.49,2.47-1.09,4.45-2.55,6.14-4.83,7.09-9.53,16.37-16.52,26.85-21.94,6.58-3.41,13.72-5.05,21.01-6.07,18.83-2.65,37.73-4.03,56.77-4.12,16.99-.08,33.98-.93,50.97-1.41,6.66-.19,13.33-.41,19.99-.43,20.33-.05,40.65-.66,60.96-1.47,9.65-.38,19.32-.57,28.99-.59,16-.02,31.98-.77,47.96-1.35,15.65-.56,31.32-.72,46.98-.75,64.99-.1,129.99-.09,194.98-.11,24.67-.01,49.32-.72,73.95-1.98,2-.1,4-.17,5.99-.38,19.92-2.16,39.93-2.03,59.92-2.04,17.33,0,34.67.06,51.98.66,18.98.66,37.96,1.36,56.9,2.97,11.95,1.02,23.93,1.68,35.88,2.72,10.62.92,21.21,2.1,31.81,3.22,6.62.7,13.23,1.59,19.86,2.23,17.25,1.66,34.39,4.14,51.51,6.76,28.96,4.44,57.78,9.76,86.27,16.63,16.82,4.05,33.56,8.44,50.25,12.99,12.85,3.5,25.34,8.1,37.48,13.65,12.17,5.57,23.69,12.15,33.91,20.88,2.02,1.72,4.25,3.21,6.49,4.64,21.12,13.47,40.97,28.58,59.26,45.72.49.46.97.91,1.46,1.36,1.07.98,2.2,1.2,3.62.67,15.86-6.03,31.72-12.06,47.61-18,3.17-1.18,5.92-2.71,8.42-5.09,31.97-30.49,68.82-53.39,109.69-69.92,28.08-11.35,56.4-22.05,85.12-31.68,19.24-6.46,38.64-12.44,58.18-17.94,2.88-.81,5.76-1.45,8.26-3.29,1-.73,2.44-.96,3.72-1.19,10.48-1.89,20.95-3.89,31.47-5.54,16.79-2.62,33.73-4.01,50.66-5.52,1.33-.12,2.66-.21,3.99-.26,35.97-1.34,71.93-2.89,107.93-1.05,2.66.14,5.33.18,7.99.29,22.97.93,45.95,1.72,68.92,2.85,14.97.74,29.92,1.98,44.88,2.98,2.99.2,5.99.48,8.98.47,12.03-.06,23.98,1.2,35.89,2.51,31.85,3.5,63.11,9.94,93.48,20.36,28.34,9.72,56.31,20.39,83.79,32.34,12.21,5.31,24.59,10.22,36.77,15.57,38.46,16.9,75.4,36.71,111.44,58.23,11.72,7,23.36,14.14,34.95,21.34,25.06,15.57,47.47,34.34,67.42,56.06,3.15,3.43,6.39,6.8,9.71,10.08,21.68,21.42,40.3,45.24,56.12,71.27,19.93,32.79,36.98,66.98,50.33,102.99,9.73,26.24,18.14,52.86,23.94,80.27,3.1,14.66,5.77,29.4,7.22,44.33.71,7.29,1.16,14.61,1.97,21.88.63,5.62,1.46,11.23,2.51,16.78,1,5.27,1.17,10.58,1.48,15.9.48,8.21-1.35,15.92-4.9,23.2-6.3,12.91-13.8,25.08-23.25,35.98-4.38,5.05-9.17,9.67-14.64,13.55-6.6,4.69-13.76,7.93-21.83,9.34-11.83,2.07-23.7,3.65-35.71,4.09-7.99.29-15.98.73-23.97,1.02-3.32.12-6.6.12-9.84-1.17-1.79-.71-3.91-.77-5.88-.79-11.33-.07-22.66-.02-34-.04-3.04,0-5.86.6-8.68,1.88-8.49,3.85-17.07,7.48-25.64,11.15-1.82.78-3.69,1.56-5.61,2.01-2.75.64-5.31.05-7.22-2.23-2.02-2.42-3.26-5.05-1.8-8.24.55-1.21,1.26-2.36,1.66-3.62.14-.45-.35-1.57-.68-1.63-6.59-1.12-13.24-1.46-19.91-1.24-1.59.05-3.26.7-4.7,1.45-4.43,2.31-8.74,4.83-13.14,7.2-1.45.79-2.97,1.51-4.54,2.02-3.43,1.11-6.82-.01-8.79-2.92-1.11-1.64-2.26-3.35-2.91-5.19-.86-2.43-2.63-2.66-4.69-2.72-2.71-.08-5.28.43-7.76,1.56-4.54,2.08-9.09,4.12-13.69,6.08-1.51.65-3.13,1.16-4.75,1.43-2.42.4-4.64-.24-6.32-2.16-.66-.75-1.45-1.48-1.81-2.37-1.93-4.79-5.76-4.99-9.96-4.2-6.21,1.17-12.4,2.46-18.61,3.66-1.95.38-3.92.75-5.89.88-1.72.11-3.26-.6-4.38-1.98-.63-.77-1.27-1.58-1.69-2.47-1.03-2.18-2.92-2.42-4.99-2.49-3.38-.12-6.64.56-9.85,1.44-5.46,1.49-10.88,3.08-16.32,4.62-1.28.36-2.56.76-3.87.95-2.41.35-4.79.06-6.37-1.97-2-2.57-4.26-2.6-7.08-1.62-8.17,2.85-16.39,5.54-24.6,8.27-1.57.52-3.14,1.12-4.76,1.44-4.92.98-8.26-2.58-8.8-6.09-.05-.33,0-.67-.07-1-.64-3.26-1.42-3.78-4.6-2.94-3.54.94-7.05,1.96-10.58,2.93-5.77,1.59-11.54,3.22-17.33,4.73-4.04,1.05-7.2-.43-9.15-4.18-.76-1.47-1.33-3.05-1.94-4.59-1.42-3.59-2.02-4-5.84-3.05-9.36,2.32-18.71,4.71-28.05,7.14-1.99.52-3.96.96-5.78-.22-2.23-1.43-4.31-1.22-6.6-.15-6.93,3.25-13.94,6.33-20.84,9.63-2.47,1.18-4.95,1.94-7.67,1.82-2.15-.1-3.93-1.07-4.88-2.97-1.04-2.07-1.93-4.25-2.53-6.48-1.05-3.9.47-5.87,3.55-7.2,7.33-3.17,14.68-6.29,22.01-9.48,1.82-.79,3.58-1.73,5.35-2.63.25-.13.6-.51.55-.66-.08-.28-.4-.55-.68-.69-3.1-1.57-6.24-2.03-9.58-.59-2.75,1.18-5.64,2.03-8.4,3.17-13.86,5.72-28.17,10.13-42.33,14.98-1.89.65-3.8,1.25-5.75,1.68-3.52.79-7.47-1.04-9.34-4.32-.81-1.42-1.26-3.04-2.07-4.46-.24-.43-1.14-.76-1.69-.7-1.31.12-2.63.4-3.89.79-6.68,2.05-13.34,4.16-20.01,6.24-1.27.4-2.53.84-3.83,1.1-3.85.77-7.17-1.14-8.72-4.94-1.93-4.74-.09-9.77,4.38-11.75,1.52-.67,3.11-1.17,4.67-1.75,14.66-5.44,29.32-10.88,43.98-16.33,1.87-.69,3.69-1.5,5.53-2.26.62-.26.87-2.05.35-2.61-.9-.97-1.77-1.98-2.75-2.86-1.03-.92-2.26-1.21-3.68-.87-8.43,2-16.65,4.45-24.44,8.45-19.57,10.05-40.14,17.77-60.66,25.6-.31.12-.59.31-.9.43-6.55,2.55-11.22-.19-12.87-8.03-.42-2,.61-3.97,2.16-5.34,1.23-1.09,2.63-2.09,4.11-2.77,16.92-7.79,33.49-16.35,50.99-22.86,10.29-3.83,20.42-8.08,30.6-12.18,1.22-.49,2.4-1.15,3.49-1.89.47-.32,1.06-1.17.93-1.55-2.15-6.29-4.39-12.56-6.64-18.82-.5-1.38-1.86-1.9-3.17-1.26-8.38,4.09-16.71,8.27-24.67,13.14-9.38,5.73-19.15,10.57-29.68,13.95-8.55,2.74-16.9,6.09-25.29,9.3-2.93,1.12-6.49.18-8.74-2.99-4.49-6.32-3.27-11.36,3.79-14.44,9.14-4,18.5-7.52,27.63-11.54,17.37-7.66,34.28-16.26,50.72-25.76,1.8-1.04,2.24-2.29,1.53-4.12-.84-2.17-1.64-4.37-2.65-6.46-3.03-6.3-5.9-12.66-8.14-19.3-.48-1.43-1.51-1.84-3.19-1.35-9.91,2.88-19.73,5.92-29.15,10.26-15.11,6.98-30.52,13.24-46.07,19.18-2.17.83-4.33,1.73-6.55,2.4-4.19,1.28-8.76-.82-10.9-4.87-2.09-3.96-.93-8.8,2.61-11.63,2.41-1.93,5.28-2.82,8.03-3.94,11.71-4.76,23.47-9.41,35.21-14.1,3.4-1.36,6.85-2.6,10.19-4.09,7.31-3.26,15.21-4.8,22.55-7.94,1.53-.66,3.07-1.28,4.58-1.95.82-.36,1.23-1.68.82-2.53-3.21-6.61-7.08-12.79-11.7-18.52-.97-1.2-2.24-1.44-3.56-1.26-1.64.23-3.24.74-4.86,1.1-18.57,4.18-36.3,10.92-54.04,17.64-10.89,4.12-21.79,8.23-32.69,12.32-1.87.7-3.76,1.35-5.66,1.96-2.48.8-4.66-.09-6.48-1.62-3.77-3.14-4.1-9.05-.67-12.46,1.39-1.38,3.04-2.63,4.8-3.48,8.99-4.34,18.03-8.58,27.1-12.75,1.79-.82,3.82-1.15,5.72-1.74,14.6-4.59,29.2-9.19,43.8-13.8,1.27-.4,2.53-.84,3.72-1.42.43-.21.89-.93.85-1.36-.06-.58-.5-1.24-.97-1.62-1.85-1.49-3.95-2.55-6.38-2.51-2.99.05-6.11-.25-8.95.49-7.54,1.96-15.17,2.23-22.83,1.88-5.17-.23-9.79.96-14.38,3.24-16.72,8.29-34.21,14.75-51.73,21.11-.62.23-1.21.57-1.84.78-4.83,1.55-9.33,1.15-12.01-5.44-1.19-2.92-1.03-6.2,2.38-8.83,1.3-1,2.85-1.7,4.3-2.51,2.02-1.13,4.06-2.22,6.06-3.37.23-.14.29-.58.42-.89-.27-.11-.55-.34-.81-.31-6.96.64-13.87,1.5-20.3,4.54-6.02,2.84-12.08,5.6-18.12,8.39-1.81.84-3.57,1.83-5.46,2.47-3.24,1.1-6.54,1.52-9.51-.81-1.72-1.35-3.58-1.56-5.64-1.09-2.59.6-5.2,1.11-7.8,1.66-1.51.32-2.48,1.28-2.5,2.58-.05,3-.07,6-.07,8.99,0,29.32,0,58.64,0,87.96,0,12.66.04,25.32-.01,37.98-.04,11,.51,21.97.92,32.96.7,18.64.96,37.3,1.07,55.95.17,27.65,0,55.31.1,82.96.03,7.65.51,15.31.86,22.96,1.02,21.96,2.08,43.92,3.12,65.88.03.67.03,1.33.02,2-.43,19.69,1.31,39.26,3.19,58.83.93,9.61,1.72,19.24,2.69,28.85,2.83,28.11,13.92,52.58,32.88,73.43,10.78,11.86,24.31,19.58,39.39,24.64,6.95,2.33,14.05,4.11,21.44,4.53,5.98.34,11.94,1.16,17.93,1.42,14.39.64,28.61-1.03,42.7-3.84,2.59-.52,5.13-1.45,7.57-2.49,13.79-5.86,27.13-12.69,40.47-19.48,2.63-1.34,5.04-3.24,7.3-5.18,8.68-7.45,15.46-16.5,21.49-26.14.98-1.57,1.18-3.17.61-3.56-1-.69-1.91-.17-2.84.09-17.9,5.16-35.84,10.23-53.69,15.56-5.72,1.71-11.27,4.05-16.85,6.22-6.82,2.65-13.61,5.4-20.38,8.18-3.87,1.59-7.14.26-9.55-3.09-.77-1.07-1.34-2.31-1.84-3.53-1.35-3.27-.31-6.75,2.6-8.86.8-.58,1.65-1.12,2.53-1.59,1.17-.63,2.37-1.21,3.58-1.77,7.85-3.65,15.57-7.61,23.59-10.83,8.03-3.22,16.71-4.34,25.12-6.27,10.72-2.46,21.26-5.44,31.63-9.09,8.79-3.1,17.66-5.96,26.79-7.87,2.62-.55,3.95-2.06,4.96-4.31,2.16-4.84,4.45-9.63,6.66-14.45.09-.19-.04-.59-.2-.76-.22-.23-.59-.5-.86-.46-1.3.19-2.61.37-3.86.73-14.08,4.07-27.78,9.22-41.54,14.22-15.32,5.57-30.86,10.5-46.24,15.91-6.33,2.23-10.12-.79-11.51-5.82-.44-1.6-.78-3.23-1-4.87-.25-1.94,1.53-4.97,3.28-5.81.6-.29,1.21-.55,1.84-.77,14.15-4.88,28.29-9.8,42.48-14.59,4.41-1.49,8.91-2.72,13.41-3.94,16.08-4.35,31.55-10.53,47.32-15.81,1.58-.53,3.15-1.06,4.74-1.56,2.94-.94,5.24-2.39,6.76-5.39,9.19-18.21,32.27-31.96,48.31-36.27,9.07-2.44,18.35-3.33,27.67-3.78,11.98-.57,23.98-1.06,35.97-1.2,43.32-.5,86.65-1.17,129.98-.49,29.32.46,58.65,1.04,87.96,1.89,21.65.63,43.28,1.8,64.92,2.68,6.99.29,13.99.37,20.98.68,4.66.21,9.3.69,13.95,1.02,2.65.18,5.31.39,7.97.42,6.67.06,13.33-.03,20,.04,7.01.07,13.96-.17,20.92-1.27,8.93-1.41,17.95-.8,26.94-.51,4.74.16,9.16,1.71,13.29,3.97,14.38,7.89,27.65,17.3,39.28,28.94,10.96,10.96,17.23,24.35,20.74,39.2,1.3,5.5,2.03,11.08,2.37,16.77,1.04,17,.41,33.98-.4,50.94-.33,6.96-1.38,13.92-2.46,20.82-5.46,34.93-14.13,69.08-25.34,102.59-9.42,28.17-21.2,55.3-36.22,80.95-5.71,9.76-11.94,19.23-18.24,28.64-7.62,11.38-16.57,21.66-26.21,31.41-27.25,27.6-56.94,52.23-89.01,74.01-35.27,23.96-71.33,46.68-108.24,68.03-3.16,1.83-6.37,3.68-9.2,5.96-15.95,12.92-33.89,22.28-52.84,29.86-16.72,6.69-33.99,11.61-51.4,16.1-20.96,5.41-42.15,9.79-63.49,13.4-14.77,2.5-29.65,4.33-44.49,6.44-6.92.98-13.85,1.97-20.79,2.86-14.53,1.86-29.08,3.61-43.62,5.48-21.82,2.8-43.79,3.99-65.66,6.22-1.31.13-2.67.24-3.95.05-6.97-1.02-13.97-.45-20.96-.44-2.96,0-5.91,1.04-8.88,1.19-3.41.17-5.93,2.7-9.43,2.9-3.23.18-6.43,1.56-9.58,2.59-8.22,2.69-16.4,5.5-24.62,8.2-1.89.62-3.83,1.2-5.79,1.43-3.98.48-7.22-.91-9.28-4.48-.66-1.15-1.01-2.49-1.71-3.6-.51-.8-1.3-1.3-2.48-.8-6.11,2.63-12.25,5.2-18.38,7.78-3.07,1.29-6.11,2.65-9.21,3.85-3.65,1.41-7.48-.03-9.44-3.45-.49-.86-.81-1.82-1.25-2.71-.83-1.69.06-4.5-2.31-5.02-1.35-.29-3.08.88-4.57,1.55-5.46,2.45-10.89,5-16.35,7.45-2.12.95-4.28,1.85-6.49,2.56-1.64.52-3.33.22-4.75-.81-1.07-.78-2.08-1.65-3.03-2.57-1.04-1-2.19-1.46-3.6-1.02-7,2.15-14.07,4.1-20.96,6.54-4.81,1.7-9.76,1.32-14.65,1.87-2.1.23-3.82-1.08-5.02-2.78-2.05-2.89-2.49-6.18-1.68-9.53.29-1.18,1.22-2.41,2.21-3.15,1.3-.96,2.89-1.61,4.44-2.13,6.29-2.13,12.61-4.14,18.91-6.25.51-.17.85-.84,1.26-1.28-.65-.09-1.35-.36-1.96-.23-3.88.89-7.76,1.78-11.59,2.82-14.45,3.92-28.87,7.92-43.32,11.85-2.24.61-4.51,1.18-6.81,1.51-2.82.41-5.28-.41-6.97-2.89-.37-.55-.72-1.11-1.13-1.63-.69-.86-1.64-1.12-2.64-.77-7.53,2.65-15.03,5.39-22.59,7.96-2.18.74-4.5,1.23-6.79,1.4-2.43.19-4.61-.71-5.82-3.09-.9-1.77-1.68-3.61-2.65-5.35-2.01-3.59-3.26-3.72-6.34-2.54-9.94,3.81-19.94,7.46-29.94,11.12-4.54,1.66-6.94.63-8.65-3.69-.73-1.84-1.23-3.77-1.81-5.67-.67-2.21-.8-2.34-2.44-1.85-1.91.58-3.82,1.17-5.71,1.79-6,1.99-11.97,4.07-18.01,5.95-2.2.69-4.52,1.09-6.82,1.3-2.68.25-5.3-1.49-6.25-4.09-.79-2.18-1.4-4.44-1.88-6.71-.41-1.93,1.2-5.02,2.99-5.91,1.48-.73,3.02-1.36,4.6-1.83,8.92-2.67,17.85-5.35,26.81-7.9,5.14-1.47,10.08-3.33,14.82-5.82,5.59-2.94,11.35-5.58,16.96-8.49,3.54-1.84,6.96-3.91,10.37-5.97.35-.21.37-1.09.38-1.67,0-.23-.4-.64-.67-.69-3.6-.59-7.2-1.27-10.83-1.62-1.61-.15-3.35.17-4.91.66-9.2,2.89-18.41,5.79-27.54,8.89-6.61,2.25-13.11,4.83-19.68,7.23-10.03,3.65-19.51,8.53-29.18,12.99-3.93,1.81-7.88,3.57-11.89,5.17-3.24,1.29-6.67.11-8.78-2.8-1.38-1.91-2.46-3.97-2.43-6.43.03-1.65.12-3.3.15-4.95.02-.86-1.24-1.52-2.17-1.06-6.58,3.2-13.14,6.45-19.73,9.63-2.69,1.3-5.41,2.56-8.2,3.62-3.25,1.23-6.78-.06-8.67-3.04-.71-1.11-1.27-2.33-1.76-3.55-1.5-3.73-.38-7.42,3.05-9.48,2.56-1.54,5.27-2.84,7.93-4.21,6.82-3.48,13.65-6.92,20.44-10.46.37-.19.38-1.09.56-1.65-.33-.06-.66-.13-.99-.16-.33-.03-.68-.09-.99-.02-11.01,2.56-22.1,4.79-32.24,10.2-5.28,2.82-10.81,5.17-16.24,7.68-1.5.7-3.03,1.46-4.64,1.79-2.71.56-5.27.06-7.52-1.76-2.44-1.97-3.85-4.56-4.69-7.48-.81-2.79.5-6.41,3.04-7.89,2-1.16,4.17-2.04,6.32-2.92,19.12-7.81,38.76-14.08,58.64-19.67,4.48-1.26,8.84-2.91,13.28-4.33.94-.3,1.15-.64.56-1.44-.19-.26-.28-.62-.51-.81-.51-.41-1.05-.86-1.65-1.07-4.68-1.67-8.83-4.65-13.79-5.61-4.47,1.3-8.98,2.48-13.4,3.92-8.85,2.89-17.67,5.9-26.48,8.9-17.33,5.89-34.64,11.81-51.97,17.68-2.52.85-5.08,1.6-7.66,2.23-2.29.55-5.54-1.17-6.85-3.23-1.48-2.33-2.01-4.92-2.33-7.57-.38-3.13,1.31-5.8,4.41-7.02,1.55-.61,3.13-1.12,4.72-1.63,20.89-6.76,41.79-13.51,62.68-20.27,2.21-.72,4.38-1.57,6.58-2.32.84-.29.98-.72.38-1.48-.2-.24-.32-.63-.57-.74-3.18-1.42-6.47-1.53-9.72-.37-4.39,1.57-8.71,3.32-13.07,4.95-26.19,9.8-52.72,18.55-79.61,26.22-3.52,1-6.99,2.18-10.52,3.14-1.59.43-3.28.77-4.89.67-1.23-.08-2.68-.63-3.56-1.47-2.81-2.7-3.74-6.22-3.16-10,.31-2.01,1.47-3.72,3.46-4.6,1.52-.67,3.06-1.3,4.62-1.84,22.65-7.8,45.3-15.62,67.98-23.35,6.29-2.14,12.67-4,18.98-6.08.52-.17.83-.97,1.2-1.51.01-.02-.39-.36-.63-.49-.29-.16-.6-.27-.92-.38-6.6-2.31-13.15-1.42-19.64.47-3.51,1.02-6.95,2.31-10.46,3.34-28.39,8.37-56.85,16.52-85.11,25.33-2.5.78-5.2,1.09-7.83,1.2-2.07.09-3.73-1.09-4.91-2.93-1.93-3.01-2.15-6.29-1.48-9.62.49-2.42,2.15-4.17,4.39-5.12,2.14-.9,4.38-1.59,6.61-2.23,18.22-5.27,36.38-10.75,54.9-14.92,5.18-1.17,10.25-2.78,15.16-4.94,5.48-2.42,11.13-4.42,16.68-6.68,1.82-.74,3.54-1.72,5.63-2.75ZM1722.39,79.13c-20.58.38-39.25.22-57.86,1.83-2.32.2-4.66.13-6.99.16-26.32.34-52.65.07-78.93,1.92-3.65.26-7.33.17-10.99.17-19.99.01-39.99-.04-59.98.03-7.65.03-15.33-.46-22.96.59-1.3.18-2.67.09-3.99-.03-13.03-1.27-25.96-.19-38.85,1.66-21.51,3.09-36.47,20.07-36.78,41.85-.11,7.66,0,15.32-.02,22.98,0,3.01.03,6,1.01,8.89,1.09,3.22.98,6.56.99,9.89.14,36.64.16,73.28,1.59,109.9.44,11.31.47,22.65,1.17,33.95,1.57,25.6,2.58,51.23,3,76.86.43,25.98.27,51.96.41,77.94.02,3.99,0,8.02.49,11.97,1.17,9.28,1.34,18.6,1.5,27.92.09,5.33.3,10.65.38,15.98.08,5.69,1.1,11.23,2.35,16.77,3.24,14.27,6.42,28.56,9.4,42.89,2.37,11.4,4.22,22.91,6.63,34.3,8.38,39.72,18.22,79.09,29.51,118.09,4.81,16.62,10.36,33,17.56,48.78,8.48,18.58,18.82,35.94,32.31,51.38,3.93,4.5,7.12,9.58,9.98,14.86,15.1,27.95,26.52,57.33,34.02,88.2,6.52,26.84,12.24,53.85,17.77,80.9,2.26,11.08,4.04,22.28,6.64,33.28,7.6,32.17,18.6,63.14,33.5,92.69,1.19,2.37,2.31,4.92,4.06,6.83,3.08,3.34,4.37,7.39,5.62,11.52,5.5,18.14,10.92,36.31,16.48,54.43,3.8,12.4,7.59,24.81,11.76,37.09,3.42,10.07,7.39,19.96,11.15,29.92,11.04,29.25,23.38,58,33.62,87.55,1.74,5.03,3.6,10.03,4.97,15.15.88,3.29,2.11,6.29,4.07,9.02,2.72,3.78,5.41,7.58,8.24,11.28,2.26,2.96,3.94,6.12,4.61,9.82.77,4.26,2.05,8.36,3.59,12.42,1.18,3.09,2.05,6.33,2.72,9.58,1.88,8.99,0,17.16-5.69,24.43-5.13,6.55-10.25,13.1-15.31,19.7-.32.42-.15,1.27-.08,1.9.02.15.54.31.84.35,5.1.55,9.91-.82,14.65-2.43,2.1-.71,4.1-.57,5.65.77,1.93,1.67,4.04,2.05,6.43,2.12,8.72.24,17.19-1.38,25.61-3.39,1.65-.4,3.18-.72,4.83.04,1.19.55,2.51,1.12,3.79,1.15,7.99.14,16.07.87,23.94-.67,5.31-1.04,10.56-1.19,15.88-1.2,15.33-.02,30.66-.19,45.99.04,23.7.35,47.25-2.17,70.88-3.23,6.32-.28,12.64-.83,18.96-.85,23.33-.1,46.65-.02,69.98-.05,11-.01,21.99-.02,32.96,1.08,3.97.4,7.99.43,11.98.51,32.99.64,65.97,1.08,98.91-1.45,12.62-.97,25.25-1.82,37.87-2.85,7.97-.65,15.92-1.47,23.87-2.29,9.28-.96,18.53-2.18,27.82-2.98,11.96-1.02,23.85-2.61,35.65-4.69,27.55-4.84,54.78-11.1,81.54-19.31,5.44-1.67,10.64-3.72,15.63-6.45,31.26-17.06,62.49-34.18,93.89-50.98,9.69-5.19,18.35-12.07,28.4-16.6.6-.27,1.12-.72,1.67-1.1,10.66-7.41,21.32-14.82,31.98-22.23,6.02-4.19,12.25-8.06,18.92-11.13,13.61-6.27,26.07-14.75,39.86-20.67,1.52-.65,2.87-1.68,4.32-2.49,6.39-3.61,12.39-7.78,18.28-12.16,21.16-15.71,41.28-32.65,60.27-50.91,3.35-3.22,6.63-6.46,9.1-10.54,12.97-21.46,23.6-44.02,30.97-67.96,10.72-34.81,17.02-70.48,18.94-106.89.21-3.99.36-7.99.71-11.97,2.34-26.55-1.22-52.44-8.11-78.05-6.48-24.1-28.04-74.48-43.34-98.39-3.95-6.17-8-12.28-12.27-18.22-7.4-10.3-15.62-19.93-24.83-28.67-20.15-19.14-42.4-35.4-66.96-48.49-8.96-4.78-18.28-7.93-28.53-8.09-1.97-.03-3.98-.4-5.87-.95-6.69-1.95-10.51-6.87-12.63-13.14-1.92-5.71-2.63-11.66-2.51-17.72.12-6.1,2.33-10.82,7.66-14.21,6.2-3.95,12.49-7.59,19.45-10.05,5.02-1.77,9.83-3.94,14.12-7.28,12.66-9.83,24.62-20.39,35.67-32,21.83-22.95,38.26-49.42,51.01-78.26,5.95-13.45,9.89-27.57,11.98-42.12,2.22-15.51,3.03-31.15,3.75-46.79.81-17.67-.38-35.29-1.74-52.9-.1-1.33-.26-2.66-.51-3.96-1.3-6.87-2.58-13.74-3.98-20.58-6.56-31.94-13.77-63.73-21.61-95.38-5.29-21.37-12.36-42.12-22.09-61.91-1.32-2.68-2.39-5.48-3.5-8.26-4.47-11.15-9.47-21.99-17.03-31.47-1.86-2.34-3.51-4.87-5.08-7.41-4.45-7.16-10.25-13.09-16.66-18.47-3.32-2.78-6.71-5.48-10.12-8.14-4.45-3.48-9.07-6.72-12.73-11.16-1.67-2.02-3.86-3.74-6.11-5.1-3.47-2.09-6.34-4.85-9.37-7.44-2.54-2.16-5.05-4.35-7.6-6.49-9.2-7.7-18.65-15.1-28.67-21.71-5.56-3.66-11.08-7.32-16.3-11.46-4.71-3.73-10.01-6.62-15.5-9.02-6.7-2.92-13.49-5.69-20.37-8.16-12.86-4.61-26.13-7.79-39.4-10.97-19.75-4.74-39.54-9.23-59.54-12.77-19.34-3.43-38.75-6.39-58.26-8.77-17.86-2.18-35.72-4.17-53.64-5.72-9.29-.8-18.58-1.69-27.88-2.42-14.94-1.17-29.89-2.39-44.85-3.3-19.29-1.17-38.58-2.31-57.92-2.47-1.66-.01-3.32-.21-4.99-.3-8.32-.45-16.63-.93-24.95-1.32-7.99-.37-15.98-.66-23.97-.95-16.32-.59-32.64-.81-48.95.5-9.96.8-19.93,1.66-29.92,2.01-23.31.82-46.6,2.15-69.93,2.13-58.32-.07-116.64-.02-174.95-.02-5.33,0-10.66,0-14.07,0ZM702.96,71.46c-10.05-.13-19.96,1.59-29.94,2.1-1.65.08-3.29.49-4.91.88-10.59,2.55-19.8,7.66-27.79,15.05-9.95,9.19-17.27,20.22-22.68,32.55-2.67,6.09-5.12,12.28-7.67,18.43-8.67,20.9-17.09,41.89-23.8,63.52-.59,1.91-1.26,3.73-2.77,5.22-.91.89-1.67,2.09-2.08,3.29-2.9,8.5-5.55,17.08-8.59,25.53-.95,2.63-.23,5.27-1,7.86-.81,2.73-3.5,4.02-4.49,6.53-.12.31-.23.62-.35.93-2.87,7.45-5.75,14.89-8.57,22.36-.33.88-.66,2.08-.33,2.85,1.68,3.9.99,6.95-2.35,9.71-1.17.97-1.73,2.81-2.29,4.36-2.28,6.25-4.39,12.56-6.68,18.8-.94,2.55-1.43,5.08-1.33,7.8.04,1.27-.09,3-.88,3.78-3.33,3.28-4.69,7.95-8.43,11.03-3.85,3.17-6.54,7.51-9.17,11.77-1.23,1.99-1.19,2.33.58,3.99.48.45,1.08.8,1.52,1.28,4.6,5,3.86,10.96-1.84,14.2-2.6,1.48-5.33,2.74-7.99,4.11-2.37,1.21-4.74,2.43-7.09,3.67-1.21.64-2.14,1.56-2.68,2.84-1.28,3.07-2.74,6.08-2.57,9.55.04.76.24,1.36,1.04,1.45,1.63.17,3.27.18,4.9.33,1.39.13,2.49.86,3.43,1.86,3.84,4.1,3.63,9.73-.65,13.17-1.53,1.23-3.32,2.22-5.11,3.06-4.52,2.12-9.09,4.14-13.68,6.1-2.47,1.06-3.49,2.94-3.56,5.46-.05,1.66-.03,3.32.02,4.98.04,1.28,1.03,2.63,2.4,2.73,4.68.34,7.19,2.93,8.22,7.31.23.96.75,1.86,1.03,2.81,1.07,3.62-.44,6.58-4.14,7.88-2.51.88-5.08,1.57-7.64,2.29-11.41,3.24-8.71,1.18-11.95,13-.26.96-.31,1.98-.61,2.93-.38,1.22.37,2.25,1.16,2.31,5.22.4,7.43,3.84,8.8,8.25.1.32.21.63.3.95,1.12,3.74-.37,7.43-4.03,9.2-2.68,1.29-5.48,2.54-8.37,3.17-3.86.84-5.53,3.2-6.21,6.75-.38,1.96-.67,3.98-1.4,5.82-1.39,3.48-.63,5.51,3.07,6.87,2.2.81,3.16,3.21,3.91,5.52.93,2.88.27,5.36-1.77,7.31-1.66,1.58-3.57,3.27-5.68,3.94-4.6,1.46-5.81,5.02-6.72,8.99-.67,2.92-1.27,5.85-1.91,8.78-.38,1.72-.05,3.27.95,4.72.75,1.09,1.51,2.22,2.06,3.42,1.57,3.42.66,7.48-2.22,9.98-1,.87-2.09,1.66-3.25,2.31-1.26.7-1.97,1.7-2.3,3.05-1.8,7.44-3.61,14.87-5.37,22.31-.23.96-.3,1.99-.22,2.97.19,2.41-.53,4.47-1.54,6.66-1.23,2.68-1.88,5.66-2.5,8.58-1.82,8.46-3.51,16.94-5.24,25.42-4.25,20.87-8.49,41.73-12.74,62.6-4.59,22.5-9.08,45.01-13.83,67.47-8.49,40.09-19.85,79.37-33.94,117.86-3.09,8.44-6.47,16.75-10.26,24.91-7.17,15.46-15.6,30.17-26.69,43.2-3.07,3.61-5.45,7.46-7.29,11.79-10.41,24.49-20.58,49.08-30.02,73.97-10.5,27.68-21.05,55.34-32.43,82.67-7.04,16.89-14.37,33.65-21.15,50.64-4.07,10.21-8.47,20.25-13.1,30.21-1.8,3.87-4.55,7.39-4.3,12.04.05.86-.77,1.78-1.24,2.65-.93,1.74-2.03,3.41-2.82,5.22-3.07,7.01-5.99,14.08-9.1,21.07-1.01,2.26-1.06,4.35-.41,6.7.67,2.42-.26,4.61-2.01,6.37-1.63,1.64-3.59,2.96-4.59,5.18-2.58,5.77-5.19,11.52-7.79,17.28-.57,1.26-.52,2.46,0,3.8,2.23,5.7,1.24,10.44-4.39,13.65-.29.16-.57.34-.86.52-1.47.93-2.41,2.27-3,3.87-2.05,5.62-4.13,11.24-6.1,16.89-.3.87-.23,1.96-.04,2.89.4,1.94,1.1,3.83,1.5,5.77.68,3.27-.28,6.13-3.26,7.68-7.5,3.89-5.45,3.81-8.49,10.29-1.41,3.01-2.45,6.19-3.72,9.26-.8,1.93-1.04,3.73-.05,5.73,2.93,5.93,1.43,10.94-3.39,15.17-.5.44-.98.92-1.53,1.28-2.32,1.56-3.67,3.79-4.56,6.37-.87,2.51-1.92,4.97-2.65,7.53-1.1,3.86-1.85,7.59.73,11.48,1.54,2.32.63,5.22-1.38,7.35-1.13,1.2-2.32,2.58-3.77,3.2-4.41,1.88-6.45,5.39-7.61,9.73-.69,2.57-1.57,5.09-2.28,7.65-.82,2.94-1.16,5.59,1.3,8.3,2.47,2.72,2.18,6.12.09,9.22-.37.55-.84,1.03-1.23,1.57-1.17,1.64-.51,3.26.42,4.6.93,1.34,2.17,2.52,3.43,3.57,9.49,7.87,19.04,15.66,28.51,23.55,1.91,1.59,3.95,2.23,6.39,2.2,6.33-.08,12.66-.03,19-.02,28.99.04,57.97.21,86.96,1.06,32.3.94,64.64.66,96.97.91,20.01.15,39.96-1.43,59.92-2.49,9.64-.51,19.27-1.44,28.87-2.53,5.64-.64,11.27-1.06,16.94-1.05,14,.04,27.99,0,41.99.02,5.01.01,9.93-.53,14.91-1.22,13.18-1.81,26.2-5.04,39.62-4.91.99,0,2.01-.08,2.98-.3,18.97-4.29,33.47-14.18,41.39-32.6,13.03-30.32,23.48-61.5,31.89-93.39.59-2.23.77-4.62,2.27-6.55,1.89-2.44,2.45-5.4,3.34-8.26,1.79-5.78,2.7-11.71,2.9-17.69.22-6.18,2.87-10.94,7.58-14.52,3.96-3.01,8.21-5.68,12.51-8.19,2.88-1.68,6.12-2.53,9.56-2.52,5.34.02,10.61.25,15.86,1.51,4.84,1.16,9.73,2.13,14.75,2.54,9.96.81,19.91,1.8,29.81,3.06,4.98.63,9.94.95,14.94.94,18.66-.03,37.33-.33,55.93,1.65,1.32.14,2.66.13,3.99.18,13.65.54,27.3,1.22,40.95,1.59,14.32.38,28.65.53,42.98.66,27.33.24,54.65.27,81.98.64,15.66.21,31.31.94,46.96,1.36,6,.16,11.97.22,17.9,1.47,2.58.54,5.3.49,7.96.54,4.33.08,8.66.01,13,.02,5.33.01,10.64.02,15.88-1.37,2.22-.59,4.62-.57,6.94-.62,4-.09,8,.07,12-.04,10.4-.29,18.63,4.25,25.65,11.44,3.09,3.17,5.25,6.91,5.72,11.4.96,9.01,3.74,17.57,6.5,26.1,3.59,11.09,6.9,22.24,9.51,33.6.45,1.94,1,3.87,1.72,5.73,5.03,13.03,8.76,26.53,14.36,39.36.93,2.12,1.66,4.36,2.22,6.61,2.37,9.4,6.54,18.13,10.1,27.08,2.5,6.28,6.38,11.66,11.1,16.45,1.16,1.18,2.78,2.02,3.66,3.36,4.06,6.2,10.33,9.18,16.81,11.92,1.23.52,2.54.88,3.68,1.53,2.78,1.58,5.68,1.74,8.71,1.03.65-.15,1.33-.2,1.95-.42,5.39-1.96,10.45-.93,15.44,1.51,2.09,1.02,4.3,1.8,6.5,2.58,3.93,1.39,7.7,1.46,11.5-.81,3.42-2.04,7.08-3.69,10.72-5.33,1.79-.8,3.74-1.41,5.68-1.68,2.02-.28,3.96.38,5.42,1.97.45.49.85,1.02,1.28,1.53q2.59,3.13,6.47,1.95c6.68-2.05,13.33-4.18,20.04-6.15,5.21-1.53,9.9-1.18,13.02,4.16.68,1.16,2.17,1.29,3.56.69,3.66-1.59,7.3-3.23,10.96-4.83,3.66-1.6,7.34-3.13,10.98-4.78,2.93-1.33,5.82-1.46,8.57.27,2.72,1.71,5.59,2.37,8.54,1.09,2.39-1.04,4.33-.55,6.59.42,3.02,1.31,6.68.64,9.56,2.55,2.4,1.6,4.97,1.72,7.67,1.52,4.96-.37,9.89-1.12,14.91-.04,2.56.55,5.35.35,7.89-.64,2.89-1.13,5.96-1.19,8.88-.97,5.2.38,10.69.33,14.53,5.04,1.1,1.35,3.07,1.37,4.69.85,3.48-1.11,6.9-2.4,10.33-3.66,6.63-2.43,6.63-2.3,13.6-2.42,3.61-.06,6.66.87,8.8,3.73,1.89,2.52,4.36,2.83,7.08,2.51,1.97-.23,3.94-.64,5.86-1.17,4.17-1.15,8.33-2.35,12.44-3.7,3.86-1.27,7.56-2.55,11.4.22.95.69,2.56.6,3.87.62,4,.07,8,.1,12-.03,1.98-.06,4.13-.08,5.88-.85,3.23-1.42,6.47-1.18,9.81-1.15,10.66.08,21.35.14,31.95-1.12,7.66-.91,15.27-.96,22.94-.44,3.3.22,6.65.07,9.95-.18,1.61-.13,3.29-.65,4.73-1.41,8.33-4.37,16.03-9.61,21.74-17.24,4.38-5.86,8.55-11.89,12.77-17.87,1.57-2.22,1.45-4.22-.72-6.13-.95-.84-1.67-2.07-2.18-3.26-4.34-10.08-8.66-20.17-12.87-30.3-4.59-11.06-8.75-22.3-13.63-33.23-5.02-11.26-9.38-22.75-13.53-34.34-1.68-4.7-3.35-9.4-5.03-14.1-16.93-47.29-33.51-94.7-48.24-142.73-1.67-5.44-3.75-10.61-6.37-15.66-12.13-23.42-21.54-47.91-28.58-73.32-3.47-12.52-5.9-25.26-8.47-37.98-5.92-29.35-12.39-58.59-19.39-87.7-7.34-30.54-17.95-59.86-32.31-87.82-2.14-4.16-4.54-8.1-7.7-11.61-2.67-2.97-5.14-6.13-7.57-9.3-15.51-20.24-27.27-42.54-36.3-66.33-5.68-14.95-10.04-30.3-14.22-45.71-2.35-8.66-4.7-17.32-8.11-25.66-2.77-6.77-5.28-13.65-8.23-20.34-5.94-13.52-9.38-27.7-11.23-42.26-.84-6.62-2.12-13.12-3.46-19.63-2.15-10.42-4.46-20.79-5.59-31.41-1.05-9.91-2.66-19.77-4.09-29.64-1-6.91-2.23-13.79-3.14-20.71-1.48-11.22-2.87-22.42-6.4-33.26-4.12-12.66-7.67-25.5-10.72-38.46-.77-3.29-2.14-6.28-3.68-9.24-2.46-4.72-5.2-9.34-6.55-14.53-.94-3.61-2.56-6.82-4.51-9.94-1.41-2.25-2.65-4.62-3.86-6.99-6.06-11.89-13.32-23.05-20.85-34.03-3.22-4.69-5.86-9.61-7.74-14.97-2.41-6.9-4.95-13.77-7.35-20.68-1.64-4.71-3.09-9.48-4.69-14.21-4.9-14.51-8.95-29.26-13.09-43.99-3.15-11.2-6.28-22.4-8.76-33.79-2.47-11.37-5.17-22.72-8.5-33.85-6.48-21.67-13.76-43.07-22.28-64.05-6.01-14.79-11.56-29.76-17.3-44.66-1.43-3.73-2.62-7.56-4.22-11.21-11.44-26.08-31.93-40.11-59.64-44.24-12.88-1.92-25.89-2.18-38.89-2.33-3.69-.04-7.36.02-10.92.96-3.93,1.05-7.9,1.08-11.9,1.08-18,0-35.99-.1-53.99.04-9.33.07-18.67.29-27.97.91-11.32.76-22.63,1.08-33.96,1.09-18.33.01-36.66.03-54.99-.01-8.33-.02-16.67.05-24.99-.34-19.97-.95-39.97-1.13-59.9-2.95-12.94-1.18-25.92-1.91-38.87-2.89-7.64-.58-15.27-1.27-22.91-1.91-8.63-.72-17.28-1.25-25.89-2.2-10.61-1.17-21.23-1.96-31.91-1.98-1.66,0-3.32-.18-4.99-.3-5.98-.41-11.96-.82-17.93-1.23ZM2962.23,715.1c-.18-7.07-.39-15.39-.62-23.72-.83-30.3-1.64-60.6-1.48-90.93.21-38.65.05-77.29.05-115.94,0-2.33.08-4.67-.01-7-.12-3.14.87-5.88,2.63-8.42,5.29-7.63,12.11-13.17,21.13-15.87,6.7-2.01,13.29-4.31,19.66-7.22,16.79-7.68,34.53-11.94,52.68-14.83,7.91-1.26,15.91-1.54,23.85-2.46,20.22-2.34,40.47-3.71,60.83-3.61,4.67.02,9.33-.01,14,0,3.34.01,6.6-.33,9.92-.9,10.63-1.82,21.22-2.09,31.45,2.26.61.26,1.26.44,1.9.62,3.2.88,6.63,1.27,9.54,2.73,3.21,1.61,5.9,4.24,8.88,6.33,6.02,4.21,11.73,8.8,16.93,13.99,1.89,1.88,3.71,3.83,5.53,5.78,1.94,2.08,4.96,1.84,7.14,3.4.27.19.56.36.83.56,2.17,1.67,3.98,3.53,3.87,6.57-.07,2.01.28,3.86,1.43,5.67,4.63,7.31,9.09,14.73,13.63,22.1.9,1.46,2.14,2.51,3.91,2.83.65.12,1.33.25,1.92.55,4.39,2.24,5.82,4.86,5.29,9.61-.11.99-.14,2.04-.5,2.95-.8,2.06-.41,3.95.57,5.75,3.52,6.43,6.5,13.11,9.17,19.93.77,1.96,1.73,3.41,3.9,4.09,3.49,1.1,5.17,4.03,6.43,7.19.89,2.26,1.07,4.62-.5,6.66-1.31,1.7-1.77,3.43-1.46,5.56.48,3.29.72,6.62,1.06,9.94.03.33,0,.67.04,1,.43,3.68,1.55,7.13,3.37,10.38,1.21,2.17,2.75,3.56,5.43,3.66,5.31.18,8.71,2.87,9.96,8.12.08.32.23.63.3.95.26,1.19,1.27,1.46,2.21,1.63,2.29.42,4.64.56,6.89,1.12,5.63,1.41,11.15,1.52,16.68-.48,1.55-.56,3.24-.83,4.88-1.01,2.39-.26,4.83.04,6.36,2.07,1.54,2.04,3.59,2.79,5.87,3.4,4.6,1.23,9.23,1.27,13.86.28,3.58-.76,7.12-1.71,10.69-2.51,1.94-.43,3.91-.84,5.89-1.03,1.69-.16,3.33.35,4.6,1.54.97.91,1.7,2.07,2.67,2.96.7.64,1.6,1.41,2.46,1.47,4.31.32,8.63.69,12.91-.38,6.45-1.6,12.91-3.17,19.38-4.67,2.43-.56,4.66.14,6.43,1.89.93.92,1.77,2.01,2.34,3.18.65,1.33,1.5,2.08,2.97,2.17,4.35.27,8.59.14,12.78-1.46,3.72-1.42,7.61-2.44,11.47-3.42,2.56-.65,5.2-1.14,7.84-1.3,3.81-.24,6.32,1.53,7.71,5.08.49,1.23.66,2.58,1.16,3.81.21.51.84,1.14,1.34,1.19,5.32.57,10.54.78,15.46-2.16,3.99-2.39,8.21-4.4,12.39-6.45,1.47-.72,3.08-1.3,4.69-1.54,4.31-.65,7.69,2.03,8.41,6.44.11.65.06,1.33.12,1.99.14,1.49,1.15,2.28,2.36,2.95,1.89,1.06,3.75,1.14,5.7.16,5.65-2.85,11.3-5.69,16.97-8.5,1.79-.89,3.57-1.82,5.44-2.49,5.04-1.8,10.19.64,12.23,5.67.25.61.34,1.28.47,1.93.13.65.17,1.32.33,1.96.27,1.06,1.15,1.54,2.12,1.16,8.06-3.15,16.09-6.35,24.18-9.43,2.15-.82,4.42-1.54,6.7-1.78,4.38-.46,8.38,2.79,9.34,7.27.21.97.14,1.99.3,2.97.21,1.3,1.44,2.1,2.94,2.12,2.02.03,3.91-.3,5.79-1.18,5.42-2.55,10.91-4.95,16.39-7.37,2.13-.94,4.26-1.91,6.45-2.68,2.02-.72,3.93-.19,5.68,1,2.32,1.58,3.74,3.77,4.26,6.49.25,1.29.18,2.65.28,3.97.07.96,1.25,1.68,2.09,1.27,6.88-3.36,13.75-6.74,20.62-10.11,2.09-1.03,4.1-2.28,6.27-3.06,5.96-2.12,10.05.32,12.63,4.94,1.15,2.04,1.59,4.34,1.58,6.74,0,1.28.98,1.89,1.97,1.47,6.75-2.82,13.48-5.67,20.23-8.49,3.38-1.41,6.74-2.86,10.16-4.16,2.4-.91,4.61-.16,6.53,1.39,2.16,1.75,3.51,4.03,3.49,6.87-.01,1.65-.36,3.29-.58,4.93-.16,1.21.34,1.84,1.39,1.95,5.4.54,10.45-.05,15.36-2.89,6.04-3.48,12.46-6.33,18.73-9.41,2.09-1.03,4.19-2.06,6.37-2.86,2.4-.88,4.71-.22,6.46,1.52,1.64,1.63,2.95,3.58,4.4,5.39.85,1.06,2.15,1.11,3.38.14.26-.2.55-.37.8-.58,8.28-7.05,14.05-15.96,18.63-25.67.81-1.72.92-3.87.99-5.83.2-5.39-1.16-10.62-2.45-15.75-1.72-6.83-2.54-13.73-3.2-20.7-.78-8.29-1.5-16.6-2.75-24.82-2.82-18.43-6.55-36.68-11.35-54.71-5.06-19-11.3-37.55-19.38-55.52-9.56-21.27-20.02-42.06-31.59-62.3-1.98-3.47-3.97-6.93-5.87-10.44-28.5-52.71-68.15-95-118.69-127.15-5.62-3.57-11.23-7.17-16.8-10.81-37.97-24.8-77.39-46.97-118.58-66-45.06-20.82-91.26-38.74-138.38-54.3-26.98-8.91-54.83-14-83.09-16.51-14.26-1.26-28.61-1.67-42.93-2.22-26.3-1.01-52.62-1.85-78.92-2.77-2-.07-3.99-.24-5.99-.32-8.32-.33-16.65-.82-24.97-.92-16.33-.19-32.66-.25-48.99-.2-29.35.08-58.6,1.72-87.71,5.69-18.82,2.57-37.52,5.69-55.91,10.48-28.35,7.38-56.49,15.44-83.94,25.76-7.5,2.82-14.74,6.09-21.66,10.1-5.47,3.17-10.96,6.32-16.47,9.42-1.73.97-3.52,1.91-5.39,2.57-5.64,2-11.28,4-17,5.74-10.59,3.22-20.3,8.24-29.78,13.86-16.38,9.71-32.03,20.41-46.08,33.31-16.48,15.13-31.64,31.49-45.39,49.14-.82,1.05-1.72,2.08-2.24,3.28-.35.8-.39,2-.05,2.79.65,1.51,1.66,2.87,2.55,4.27,15.64,24.61,27.23,51.03,35.48,78.96,5.18,17.56,9.51,35.34,13.74,53.14,5.54,23.31,10.38,46.77,14.78,70.33,3.19,17.05,5.81,34.17,6.74,51.46,1.28,23.96,1.37,47.92-.94,71.88-2.06,21.35-6.98,41.95-14.2,62.1-8.5,23.72-20.96,45.24-35.61,65.59-15.45,21.45-33.24,40.78-52.96,58.36-1.98,1.76-3.86,3.64-5.75,5.49-.62.6-.59,1.24.04,1.66,1.93,1.29,3.84,2.63,5.84,3.8,12.68,7.42,24.55,16,35.96,25.22,8.04,6.5,15.59,13.54,23.05,20.7,15.69,15.06,29.51,31.66,41.63,49.7,9.11,13.57,17.35,27.63,24.49,42.32,12.8,26.37,24.4,53.24,31.95,81.66,5.49,20.66,9.25,41.6,9.48,63.04.18,16.66-.32,33.29-1.75,49.91-1.2,13.95-2.82,27.84-5.17,41.62-4.77,27.95-12.21,55.21-22.04,81.8-7.51,20.32-16.54,39.96-27.32,58.77-5.32,9.29-11.57,17.73-19.5,25.08-19.33,17.92-39.44,34.86-60.62,50.54-2.13,1.58-4.19,3.26-6.27,4.92-.6.48-.49,2.11.15,2.58,2.4,1.79,4.77,3.63,7.22,5.35,15.24,10.77,30.94,20.83,47.14,30.09,5.23,2.99,10.08,6.4,14.48,10.52,10.25,9.61,21.64,17.69,33.78,24.75,21.98,12.78,45.21,22.74,69.61,29.7,52.55,14.99,105.71,27.22,159.96,34.37,17.5,2.3,34.96,4.86,52.46,7.17,12.88,1.7,25.81,2.99,38.66,4.85,13.55,1.96,27.15,2.99,40.82,3.46,5,.17,10.01.21,14.98.7,9.31.92,18.63,1.09,27.96,1.12,17,.07,33.98-.6,50.97-1.1,21.98-.64,43.98-.72,65.91-2.7,10.29-.93,20.57-1.85,30.85-2.86,7.63-.75,15.22-2.05,22.86-2.38,7.42-.32,14.52-1.62,21.48-4.05,1.54-.54,3.3-1.08,4.85-.86,3.49.5,6.56-.69,9.74-1.63,7.34-2.16,14.76-4.08,22.03-6.46,4.28-1.4,8.35-2.02,12.64-.31,2.32.92,4.48.19,6.71-.8,7.6-3.38,15.27-6.6,22.93-9.84,3.5-1.48,7.07-1.98,10.58-.01,1.68.94,3.13.43,4.69-.35,7.14-3.58,14.3-7.12,21.48-10.62,2.39-1.17,4.8-2.31,7.29-3.22,1.59-.59,3.29-.32,4.79.63.56.36,1.27.62,1.64,1.12,2.15,2.9,4.6,2.93,7.82,1.65,8.05-3.2,16.05-6.5,23.72-10.5,7.98-4.17,15.72-8.81,22.47-14.82,3.52-3.13,7.41-5.61,11.39-8.04,31.55-19.24,63.2-38.34,94.62-57.8,33.85-20.98,64.36-46.17,92.64-74.18,20.57-20.37,37.08-43.57,50.19-69.27,5.6-10.97,10.47-22.27,14.87-33.79,6.65-17.44,11.66-35.37,16.54-53.36,5.23-19.29,9.33-38.82,12.83-58.48,2.04-11.46,2.63-23.17,5.64-34.48.34-1.27.31-2.65.34-3.97.15-6.99.28-13.98.38-20.98.07-5.02-.82-9.93-1.63-14.87-.96-5.83-3.55-10.72-7.52-14.91-2.28-2.41-4.71-4.76-7.38-6.7-4.85-3.51-10.02-6.56-14.9-10.03-4.87-3.47-10.23-4.66-16.06-4.13-4.31.39-8.69.51-12.88,1.47-4.28.98-8.54,1.32-12.87,1.32-8.33,0-16.67.07-25-.03-4.99-.06-10.01-.12-14.97-.63-9.96-1.02-19.94-1.35-29.94-1.48-7.66-.1-15.32-.49-22.98-.78-11.65-.44-23.31-.93-34.96-1.35-6.66-.24-13.33-.28-19.99-.57-31.31-1.39-62.64-1.5-93.96-1.54-34.33-.05-68.66.19-102.99.28-9.67.03-19.32.18-28.95,1.28-3.97.45-7.98.64-11.97.71-4.37.07-8.65.66-12.84,1.76-13.05,3.42-22.68,10.86-27.47,23.82-.81,2.18-1.51,4.4-2.28,6.6-1.53,4.42-3.62,8.57-5.99,12.6-3.37,5.74-6.72,11.49-9.92,17.32-6.73,12.26-13.41,24.54-19.99,36.87-3.31,6.21-7.21,11.98-11.8,17.29-12.35,14.28-26.77,25.77-44,33.85-24.15,11.33-49.65,17.22-76.05,19.3-25.79,2.03-51.24-.56-76.19-7.51-27.12-7.55-49.77-22-67.56-43.9-5.89-7.25-11.35-14.81-16.1-22.85-12.72-21.5-20.77-44.59-23.26-69.49-.89-8.95-1.53-17.92-2.13-26.89-1.2-17.94-2.41-35.89-3.39-53.85-.99-17.96-1.46-35.95-2.62-53.9-1.55-23.95-2.24-47.91-2.13-71.91.11-21.99.02-43.98.02-67.22ZM1357.24,154.22c-.3-3.1-.54-5.74-.83-8.38-.14-1.32-.34-2.63-.54-3.95-.32-2.12-1.53-2.91-3.4-2.11-12.2,5.21-24.36,10.54-36.6,15.65-7.93,3.31-15.53,7.57-24.25,8.75-1.13.15-2.03,2.05-1.62,3.1,1.7,4.32,3.37,8.65,5.06,12.98.12.31.23.62.36.93.78,1.83,1.98,2.3,4.01,1.34,16.82-7.95,34.07-14.78,52.08-19.58.64-.17,1.24-.48,1.86-.71.93-.35,2.02-.51,2.75-1.11.67-.55,1.27-1.55,1.33-2.4.13-1.64-.14-3.3-.21-4.5ZM1357.77,191.57c.06,0,.13,0,.19,0-.13-2.63-.25-5.27-.4-7.9-.05-.9-1.25-1.8-2.07-1.57-17.24,4.76-33.93,11.03-50.3,18.2-.29.13-.53.38-.8.58-.87.65-1.26,1.57-1.03,2.57.3,1.28.84,2.5,1.24,3.75,4.18,13.18,1.88,9.85,13.97,7.57,2.25-.42,4.41-1.41,6.57-2.24,9.56-3.69,19.1-7.42,28.65-11.14.62-.24,1.29-.4,1.82-.76,1.09-.74,2.15-1.56,2.15-3.1,0-1.98,0-3.97,0-5.95ZM1359.66,266.7c.12,0,.25,0,.37,0-.19-3.29-.33-6.59-.63-9.87-.03-.37-1.13-1.05-1.5-.92-10.58,3.76-21.36,7-31.61,11.68-.9.41-1.75.92-2.62,1.4-1.37.75-1.97,1.88-1.62,3.21,1.24,4.8,2.48,9.6,3.79,14.38.26.94.71,1.87,1.27,2.68.3.43,1.11.91,1.5.79,1.57-.49,3.06-1.22,4.58-1.84,8.54-3.5,16.39-8.57,25.36-11.1.47-.13,1.04-.95,1.06-1.46.1-2.97.05-5.95.05-8.92ZM1359.03,229.61c-.38-2.44-.88-5.71-1.41-8.97-.12-.77-1.55-1.53-2.31-1.25-.93.33-1.89.59-2.81.95-12.31,4.81-24.35,10.36-37.22,13.64-.3.08-.63.28-.8.52-.37.51-1.02,1.18-.91,1.63,1.06,4.47,2.24,8.92,3.43,13.36.26.96,1.37,1.43,2.27,1.09,1.55-.58,3.55-.73,4.55-1.81,2.94-3.16,6.96-3.74,10.64-5.02,7.18-2.5,14.46-4.68,21.7-7,.31-.1.61-.26.93-.36,1.19-.39,2.33-1.89,2.25-2.96-.07-.99-.16-1.98-.31-3.81ZM1358.64,112.14c-.42-.42-.9-1.25-1.24-1.2-5.3.81-10.16,3.04-15.09,4.95-18.87,7.3-37.43,15.38-55.87,23.7-1.51.68-3.1,1.29-4.39,2.27-.59.45-.85,1.77-.73,2.64.24,1.87,1.95,2.94,3.6,2.36,12.51-4.4,25.18-8.42,37.45-13.41,11.36-4.61,22.29-10.25,33.41-15.46,2.5-1.17,2.77-3.48,2.87-5.85ZM1361.9,308.69h-.05c0-2.98.03-5.97-.01-8.95-.03-2.02-1.46-3.05-3.25-2.31-7.96,3.27-15.91,6.58-23.86,9.88-1.25.52-2.04,1.97-1.71,3.18.88,3.19,1.61,6.44,2.79,9.51,1.3,3.38,1.54,7.17,3.91,10.14,4.17-.02,7-3.12,10.53-4.6,1.83-.77,3.47-2.09,5.35-2.59,4.91-1.31,7.12-4.15,6.33-9.29-.25-1.62-.04-3.31-.04-4.97ZM404.46,553.79c.32-2.04-.94-2.84-1.92-2.42-10.05,4.32-20.12,8.57-30.11,13.01-5.14,2.28-10.12,4.91-15.16,7.4-.27.13-.42.5-.63.76.57.14,1.16.46,1.7.38.97-.14,1.9-.51,2.84-.81,13.23-4.31,26.05-9.84,39.6-13.17.32-.08.71-.14.92-.35.68-.68,1.48-1.33,1.89-2.16.57-1.17.83-2.49.88-2.64ZM1362.5,346.66c-.07-.42-.4-2.69-.77-4.95-.15-.95-1.38-1.62-2.15-1.18-4,2.26-8,4.5-11.99,6.78-1.26.72-1.94,2.15-1.53,3.25.92,2.45,1.89,4.88,2.91,7.28.45,1.05,1.52,1.32,2.46,1.05,3.46-.98,6.88-2.09,10.31-3.17,1.09-.35,1.48-1.37,1.47-2.3-.02-1.63-.32-3.26-.72-6.75ZM178.02,1534.23c-.25-.15-.51-.29-.76-.44.19-.27.33-.63.58-.79,2.13-1.38,4.53-.09,6.72-.62,7.67-1.87,15.35-3.72,22.97-5.8,1.82-.5,3.42-1.84,5.08-2.86.62-.38.44-.76-.37-.9-4.96-.84-9.74-.85-14.41,1.63-3.48,1.85-7.31,3.01-10.84,4.78-2.54,1.27-5.4,2.14-7.17,4.7-.24.35-1.19.22-1.81.31ZM2823.47,1499.78c-.08-.24-.12-.66-.24-.68-3.35-.71-6.55-.18-9.74.99-6.54,2.4-13.15,4.61-19.72,6.96-2.18.78-4.3,1.72-6.43,2.64-.19.08-.21.56-.28.86-.17.71.28,1.46,1.01,1.23,11.39-3.53,22.76-7.16,34.12-10.77.32-.1.68-.19.9-.4.2-.2.25-.56.37-.85ZM2968.79,1528.55c-1.09.15-2.83.04-4.27.65-2.39,1.02-4.59,2.49-6.86,3.8-.26.15-.42.49-.63.74.43.2.9.63,1.27.55,2.89-.61,5.77-1.28,8.64-2,.95-.24,1.85-.67,2.78-1,1.03-.37,2.07-1.77,1.49-1.99-.61-.23-1.25-.39-2.42-.75ZM1363.24,383.58c-.17-1.44-.32-3.09-.56-4.74-.31-2.14-2.58-2.92-4.6-1.52-.45.31-1.01,1.26-.86,1.53,1.15,2.01,2.42,3.95,3.76,5.84.33.47,1.06.65,1.61.96.19-.62.38-1.23.64-2.07ZM910.48,1340.13c-.92.29-1.88.51-2.76.9-.55.24-.98.73-1.47,1.11.51.21,1,.54,1.52.58.63.06,1.3-.04,1.91-.22.6-.18,1.19-.47,1.69-.84.49-.36.86-.88,1.29-1.33-.73-.07-1.46-.14-2.18-.2Z"/>
      <path class="cls-1" d="M1722.39,79.13c3.4,0,8.74,0,14.07,0,58.32,0,116.64-.04,174.95.02,23.34.03,46.63-1.31,69.93-2.13,9.98-.35,19.95-1.21,29.92-2.01,16.31-1.31,32.63-1.09,48.95-.5,7.99.29,15.98.58,23.97.95,8.32.39,16.63.87,24.95,1.32,1.66.09,3.32.29,4.99.3,19.33.16,38.63,1.3,57.92,2.47,14.96.9,29.9,2.13,44.85,3.3,9.3.73,18.58,1.61,27.88,2.42,17.92,1.54,35.79,3.54,53.64,5.72,19.51,2.38,38.92,5.35,58.26,8.77,19.99,3.54,39.79,8.03,59.54,12.77,13.27,3.18,26.54,6.36,39.4,10.97,6.88,2.47,13.67,5.23,20.37,8.16,5.49,2.4,10.79,5.29,15.5,9.02,5.22,4.14,10.74,7.8,16.3,11.46,10.02,6.6,19.46,14,28.67,21.71,2.55,2.14,5.07,4.32,7.6,6.49,3.04,2.59,5.9,5.35,9.37,7.44,2.25,1.36,4.45,3.08,6.11,5.1,3.66,4.44,8.28,7.68,12.73,11.16,3.41,2.67,6.8,5.36,10.12,8.14,6.41,5.37,12.21,11.3,16.66,18.47,1.58,2.54,3.22,5.07,5.08,7.41,7.56,9.48,12.57,20.32,17.03,31.47,1.11,2.78,2.19,5.58,3.5,8.26,9.73,19.8,16.8,40.54,22.09,61.91,7.83,31.65,15.05,63.44,21.61,95.38,1.41,6.84,2.68,13.72,3.98,20.58.25,1.31.41,2.64.51,3.96,1.36,17.61,2.55,35.23,1.74,52.9-.72,15.64-1.53,31.28-3.75,46.79-2.08,14.55-6.03,28.66-11.98,42.12-12.75,28.84-29.17,55.31-51.01,78.26-11.05,11.61-23.02,22.18-35.67,32-4.3,3.34-9.1,5.51-14.12,7.28-6.96,2.46-13.26,6.1-19.45,10.05-5.33,3.4-7.54,8.12-7.66,14.21-.12,6.06.58,12.01,2.51,17.72,2.11,6.27,5.94,11.19,12.63,13.14,1.89.55,3.91.92,5.87.95,10.24.17,19.57,3.32,28.53,8.09,24.56,13.09,46.8,29.35,66.96,48.49,9.2,8.74,17.42,18.37,24.83,28.67,4.27,5.94,8.32,12.06,12.27,18.22,15.3,23.91,36.86,74.29,43.34,98.39,6.89,25.62,10.45,51.51,8.11,78.05-.35,3.98-.5,7.98-.71,11.97-1.92,36.41-8.23,72.08-18.94,106.89-7.37,23.94-18,46.5-30.97,67.96-2.47,4.08-5.75,7.32-9.1,10.54-19,18.26-39.11,35.2-60.27,50.91-5.89,4.37-11.89,8.55-18.28,12.16-1.45.82-2.8,1.84-4.32,2.49-13.79,5.92-26.25,14.39-39.86,20.67-6.67,3.07-12.89,6.94-18.92,11.13-10.66,7.41-21.32,14.82-31.98,22.23-.55.38-1.07.83-1.67,1.1-10.05,4.53-18.71,11.41-28.4,16.6-31.4,16.8-62.63,33.92-93.89,50.98-4.99,2.72-10.19,4.78-15.63,6.45-26.77,8.21-53.99,14.47-81.54,19.31-11.8,2.07-23.69,3.67-35.65,4.69-9.29.79-18.54,2.02-27.82,2.98-7.95.82-15.91,1.65-23.87,2.29-12.62,1.02-25.25,1.88-37.87,2.85-32.94,2.53-65.93,2.1-98.91,1.45-4-.08-8.01-.11-11.98-.51-10.97-1.1-21.96-1.09-32.96-1.08-23.33.03-46.65-.05-69.98.05-6.32.03-12.64.57-18.96.85-23.63,1.06-47.18,3.58-70.88,3.23-15.33-.22-30.66-.05-45.99-.04-5.32,0-10.57.16-15.88,1.2-7.87,1.53-15.94.81-23.94.67-1.27-.02-2.59-.6-3.79-1.15-1.65-.76-3.17-.44-4.83-.04-8.41,2.01-16.89,3.63-25.61,3.39-2.39-.07-4.5-.44-6.43-2.12-1.55-1.34-3.54-1.48-5.65-.77-4.73,1.61-9.54,2.98-14.65,2.43-.3-.03-.82-.2-.84-.35-.07-.64-.24-1.48.08-1.9,5.06-6.6,10.18-13.16,15.31-19.7,5.7-7.26,7.57-15.44,5.69-24.43-.68-3.24-1.55-6.49-2.72-9.58-1.54-4.05-2.82-8.16-3.59-12.42-.67-3.7-2.35-6.86-4.61-9.82-2.83-3.7-5.52-7.5-8.24-11.28-1.96-2.73-3.2-5.73-4.07-9.02-1.37-5.13-3.23-10.13-4.97-15.15-10.24-29.56-22.58-58.3-33.62-87.55-3.76-9.96-7.73-19.84-11.15-29.92-4.17-12.28-7.95-24.69-11.76-37.09-5.56-18.12-10.98-36.29-16.48-54.43-1.25-4.13-2.54-8.18-5.62-11.52-1.76-1.91-2.87-4.46-4.06-6.83-14.9-29.55-25.9-60.52-33.5-92.69-2.6-11-4.38-22.19-6.64-33.28-5.52-27.06-11.25-54.07-17.77-80.9-7.5-30.88-18.92-60.25-34.02-88.2-2.85-5.28-6.04-10.36-9.98-14.86-13.49-15.44-23.83-32.81-32.31-51.38-7.2-15.78-12.75-32.15-17.56-48.78-11.29-39-21.13-78.36-29.51-118.09-2.4-11.39-4.26-22.9-6.63-34.3-2.98-14.33-6.16-28.62-9.4-42.89-1.26-5.54-2.27-11.07-2.35-16.77-.08-5.33-.29-10.65-.38-15.98-.16-9.33-.33-18.64-1.5-27.92-.5-3.95-.47-7.98-.49-11.97-.14-25.98.02-51.97-.41-77.94-.42-25.64-1.43-51.26-3-76.86-.69-11.3-.73-22.63-1.17-33.95-1.42-36.62-1.44-73.26-1.59-109.9-.01-3.33.1-6.67-.99-9.89-.98-2.89-1.02-5.88-1.01-8.89.02-7.66-.09-15.32.02-22.98.31-21.78,15.27-38.76,36.78-41.85,12.89-1.85,25.82-2.93,38.85-1.66,1.32.13,2.68.21,3.99.03,7.63-1.05,15.31-.57,22.96-.59,19.99-.07,39.99-.02,59.98-.03,3.66,0,7.34.08,10.99-.17,26.28-1.85,52.62-1.58,78.93-1.92,2.33-.03,4.67.04,6.99-.16,18.61-1.61,37.28-1.45,57.86-1.83ZM1970.71,916.4c-8.66,0-17.32-.13-25.98.04-8.66.16-17.31.61-25.96.93-6.78.25-13.07,2.37-19.17,5.11-1.14.52-2.23,1.5-2.95,2.55-1.49,2.19-2.74,4.54-4.04,6.86-1.87,3.33-2.32,6.92-1.73,10.63.31,1.97.91,3.88,1.28,5.84,1.04,5.55,2.04,11.12,3.02,16.68.31,1.79-.25,3.14-1.94,4.12-3.18,1.84-6.23,3.88-8.3,7.04-1.55,2.37-2.02,4.79-.69,7.52,2.35,4.84,6.29,8.53,9.1,13.02,3.49,1.42,3.48,4.48,3.56,7.53.55,20.96,1.98,41.9,1.75,62.89-.03,2.33.08,4.66.2,6.99.66,11.97,1.33,23.93,2.02,35.89.56,9.64,1.31,19.27,1.66,28.91.16,4.28,1.73,7.65,4.45,10.78,6.75,7.77,5.36,7.31,15.78,8.81,1.32.19,2.66.2,3.98.36,8.3,1.02,16.62.83,24.95.64,16.98-.39,33.97-.32,50.86-2.55,6.93-.92,13.89-1.57,20.82-2.45,16.53-2.1,33.11-3.44,49.8-3.07,2.66.06,5.33-.13,7.99-.19,5.35-.12,10.63-.79,15.78-2.25,8.01-2.27,16.17-3.92,24.37-5.3,8.98-1.51,17.4-4.62,25.23-9.08,23.68-13.48,41.09-32.57,50.62-58.31,10.09-27.26,11.77-55.15,5.24-83.46-3.56-15.41-9.79-29.66-19.84-42.06-10.44-12.9-23.36-22.66-38.19-29.96-6.01-2.96-12.36-5.03-19.02-5.75-14.25-1.53-28.54-2.74-42.87-1.73-10.31.73-20.63.72-30.94,1.03-5.99.18-12.02.18-17.96.85-12.62,1.43-25.27,1.08-37.91,1.12-8.33.03-16.65,0-24.98,0ZM1998.15,631.58c20.96,0,39.63-.03,58.29.01,10.33.03,20.58-.3,30.86-1.99,8.96-1.48,17.58-3.61,25.84-7.29,4.86-2.17,9.78-4.22,14.22-7.23,14.16-9.59,24.77-22.14,31.42-37.93,8.28-19.63,12.59-39.96,10.5-61.37-.27-2.74.01-5.17,1.42-7.66,1.22-2.15.9-4.68-1.01-6.44-2.11-1.94-2.95-4.28-3.44-6.99-1.57-8.56-4.3-16.74-8.35-24.47-.15-.29-.31-.62-.31-.93,0-.61-.05-1.32.22-1.82.79-1.46,1.96-2.75,2.56-4.27,2.7-6.8-2.08-14.16-8.8-12.62-.32.07-.66.12-.98.19-1.42.32-2.63-.05-3.51-1.23-4.8-6.46-10.36-12.17-16.89-16.9-.91-.66-1.11-2.31-.62-3.61.7-1.85,1.49-3.69,1.97-5.6.51-2.05-.19-3.97-1.53-5.57-2.33-2.78-5.41-3.97-8.91-3.22-3.57.77-7.08,1.88-10.53,3.08-2.03.71-3.82.56-5.76-.17-4.98-1.89-10.01-3.63-15.31-4.48-.96-.15-1.91-.47-2.46-1.48-.47-.87-1.12-1.66-1.66-2.5-3.52-5.47-6.51-7.76-14.22-4.05-4.19,2.02-8.57,3.65-12.94,5.26-3.08,1.13-4.9.25-6.5-2.66-.63-1.15-1.1-2.46-1.96-3.41-1.38-1.53-3.25-2.36-5.35-2.2-1.31.1-2.6.53-3.89.83-6.47,1.54-12.95,3.08-19.41,4.66-2.2.54-3.74,0-5.06-1.99-2.05-3.09-4.99-4.19-8.68-3.14-2.24.63-4.54,1.04-6.81,1.58-3.56.85-7.08,2.01-10.68,2.5-3.26.45-6.5.4-9.4-2.12-2.9-2.52-6.43-2.96-10.33-1.94-3.85,1-7.85,1.59-11.82,1.89-5.95.46-11.8.5-17.78-1.13-8.96-2.45-18.06-4.59-27.44-5.14-3.15-.18-6.06.14-8.62,1.78-5.08,3.26-9.59,7.23-12.92,12.32-1.08,1.64-2.02,3.54-2.39,5.44-.58,2.97-1.39,5.8-2.81,8.47-1.59,3.01-.74,5.85.89,8.51.68,1.11,1.6,2.19,2.66,2.93,2.57,1.81,2.9,4.34,2.61,7.09-.17,1.64-.66,3.25-.85,4.89-.15,1.3-.37,2.74,0,3.93,1.24,3.92.86,7.92.87,11.9.03,40.98.01,81.96.02,122.93,0,3-.03,6,.1,8.99.14,3.38,1.11,6.48,3.1,9.34,2.5,3.58,5.32,6.71,8.98,9.19,4.96,3.37,9.72,7.02,14.55,10.56,3.05,2.23,6.34,3.28,10.22,3.27,9.33-.02,18.67.11,27.98.64,14.31.81,28.62,1.6,40.66,1.33Z"/>
      <path class="cls-1" d="M702.96,71.46c5.98.41,11.96.82,17.93,1.23,1.66.11,3.32.29,4.99.3,10.68.01,21.3.8,31.91,1.98,8.61.95,17.26,1.48,25.89,2.2,7.64.64,15.27,1.33,22.91,1.91,12.96.99,25.93,1.72,38.87,2.89,19.93,1.82,39.93,2,59.9,2.95,8.32.39,16.66.32,24.99.34,18.33.05,36.66.03,54.99.01,11.33,0,22.65-.34,33.96-1.09,9.3-.62,18.64-.84,27.97-.91,18-.14,35.99-.04,53.99-.04,4,0,7.97-.03,11.9-1.08,3.55-.95,7.23-1.01,10.92-.96,13,.16,26.01.42,38.89,2.33,27.71,4.13,48.2,18.15,59.64,44.24,1.6,3.65,2.79,7.48,4.22,11.21,5.74,14.9,11.29,29.87,17.3,44.66,8.52,20.98,15.8,42.38,22.28,64.05,3.33,11.14,6.03,22.49,8.5,33.85,2.47,11.39,5.6,22.59,8.76,33.79,4.15,14.73,8.19,29.49,13.09,43.99,1.6,4.72,3.05,9.5,4.69,14.21,2.4,6.91,4.93,13.77,7.35,20.68,1.87,5.36,4.52,10.27,7.74,14.97,7.53,10.98,14.79,22.14,20.85,34.03,1.21,2.37,2.45,4.73,3.86,6.99,1.96,3.12,3.57,6.34,4.51,9.94,1.35,5.19,4.09,9.81,6.55,14.53,1.54,2.96,2.91,5.95,3.68,9.24,3.04,12.97,6.59,25.8,10.72,38.46,3.53,10.83,4.92,22.04,6.4,33.26.91,6.92,2.14,13.8,3.14,20.71,1.43,9.87,3.04,19.73,4.09,29.64,1.12,10.62,3.44,20.99,5.59,31.41,1.34,6.51,2.62,13.01,3.46,19.63,1.85,14.56,5.29,28.74,11.23,42.26,2.94,6.69,5.46,13.57,8.23,20.34,3.41,8.33,5.76,16.99,8.11,25.66,4.18,15.41,8.55,30.77,14.22,45.71,9.03,23.79,20.8,46.08,36.3,66.33,2.43,3.17,4.9,6.33,7.57,9.3,3.16,3.51,5.56,7.44,7.7,11.61,14.35,27.96,24.96,57.29,32.31,87.82,7,29.12,13.47,58.35,19.39,87.7,2.57,12.72,5,25.46,8.47,37.98,7.04,25.42,16.44,49.91,28.58,73.32,2.62,5.05,4.7,10.23,6.37,15.66,14.73,48.03,31.32,95.44,48.24,142.73,1.68,4.7,3.35,9.4,5.03,14.1,4.15,11.59,8.5,23.08,13.53,34.34,4.88,10.93,9.04,22.17,13.63,33.23,4.2,10.14,8.53,20.22,12.87,30.3.51,1.19,1.23,2.42,2.18,3.26,2.17,1.91,2.29,3.91.72,6.13-4.23,5.98-8.39,12.01-12.77,17.87-5.71,7.64-13.41,12.87-21.74,17.24-1.44.75-3.12,1.28-4.73,1.41-3.3.26-6.65.41-9.95.18-7.67-.52-15.28-.46-22.94.44-10.6,1.26-21.29,1.2-31.95,1.12-3.34-.03-6.58-.27-9.81,1.15-1.75.77-3.9.79-5.88.85-4,.12-8,.09-12,.03-1.31-.02-2.92.07-3.87-.62-3.84-2.77-7.54-1.49-11.4-.22-4.11,1.35-8.27,2.54-12.44,3.7-1.92.53-3.89.93-5.86,1.17-2.72.32-5.2.01-7.08-2.51-2.14-2.86-5.19-3.79-8.8-3.73-6.97.12-6.97,0-13.6,2.42-3.43,1.26-6.85,2.55-10.33,3.66-1.62.52-3.59.49-4.69-.85-3.85-4.72-9.33-4.66-14.53-5.04-2.92-.21-5.99-.16-8.88.97-2.55,1-5.33,1.2-7.89.64-5.02-1.08-9.94-.34-14.91.04-2.7.2-5.27.08-7.67-1.52-2.87-1.91-6.53-1.25-9.56-2.55-2.26-.98-4.2-1.46-6.59-.42-2.95,1.28-5.82.62-8.54-1.09-2.75-1.73-5.64-1.6-8.57-.27-3.64,1.64-7.32,3.18-10.98,4.78-3.66,1.6-7.3,3.23-10.96,4.83-1.39.6-2.88.47-3.56-.69-3.12-5.33-7.81-5.68-13.02-4.16-6.7,1.97-13.36,4.1-20.04,6.15q-3.87,1.19-6.47-1.95c-.42-.51-.83-1.04-1.28-1.53-1.46-1.59-3.4-2.25-5.42-1.97-1.94.27-3.89.88-5.68,1.68-3.64,1.63-7.3,3.29-10.72,5.33-3.8,2.27-7.57,2.2-11.5.81-2.2-.77-4.41-1.56-6.5-2.58-4.98-2.44-10.04-3.46-15.44-1.51-.62.22-1.3.27-1.95.42-3.03.71-5.92.55-8.71-1.03-1.15-.65-2.46-1.01-3.68-1.53-6.47-2.74-12.74-5.72-16.81-11.92-.88-1.34-2.5-2.18-3.66-3.36-4.71-4.79-8.6-10.16-11.1-16.45-3.56-8.96-7.73-17.68-10.1-27.08-.57-2.25-1.3-4.49-2.22-6.61-5.6-12.82-9.33-26.33-14.36-39.36-.72-1.85-1.27-3.79-1.72-5.73-2.61-11.36-5.92-22.51-9.51-33.6-2.76-8.54-5.54-17.1-6.5-26.1-.48-4.48-2.63-8.23-5.72-11.4-7.02-7.19-15.25-11.73-25.65-11.44-4,.11-8-.05-12,.04-2.32.05-4.73.03-6.94.62-5.24,1.39-10.55,1.38-15.88,1.37-4.33-.01-8.67.06-13-.02-2.66-.05-5.38,0-7.96-.54-5.92-1.25-11.9-1.31-17.9-1.47-15.65-.42-31.3-1.15-46.96-1.36-27.32-.36-54.65-.39-81.98-.64-14.33-.13-28.66-.28-42.98-.66-13.66-.36-27.3-1.04-40.95-1.59-1.33-.05-2.67-.04-3.99-.18-18.6-1.98-37.27-1.69-55.93-1.65-5,0-9.96-.31-14.94-.94-9.91-1.26-19.86-2.25-29.81-3.06-5.02-.41-9.91-1.37-14.75-2.54-5.26-1.27-10.52-1.5-15.86-1.51-3.43,0-6.68.83-9.56,2.52-4.3,2.51-8.54,5.19-12.51,8.19-4.71,3.57-7.37,8.34-7.58,14.52-.21,5.98-1.11,11.91-2.9,17.69-.89,2.87-1.44,5.82-3.34,8.26-1.5,1.93-1.68,4.32-2.27,6.55-8.41,31.89-18.86,63.07-31.89,93.39-7.92,18.43-22.42,28.31-41.39,32.6-.97.22-1.99.31-2.98.3-13.42-.13-26.44,3.1-39.62,4.91-4.97.68-9.9,1.23-14.91,1.22-14-.03-27.99.02-41.99-.02-5.67-.02-11.3.41-16.94,1.05-9.6,1.09-19.23,2.02-28.87,2.53-19.96,1.05-39.91,2.64-59.92,2.49-32.32-.25-64.66.03-96.97-.91-28.99-.85-57.97-1.02-86.96-1.06-6.33,0-12.66-.06-19,.02-2.44.03-4.48-.61-6.39-2.2-9.47-7.89-19.02-15.68-28.51-23.55-1.27-1.05-2.5-2.23-3.43-3.57-.93-1.34-1.59-2.96-.42-4.6.38-.54.86-1.02,1.23-1.57,2.08-3.09,2.38-6.49-.09-9.22-2.46-2.71-2.12-5.36-1.3-8.3.72-2.56,1.6-5.08,2.28-7.65,1.16-4.34,3.21-7.84,7.61-9.73,1.45-.62,2.63-2,3.77-3.2,2.01-2.12,2.92-5.03,1.38-7.35-2.58-3.88-1.83-7.61-.73-11.48.73-2.55,1.78-5.01,2.65-7.53.89-2.58,2.24-4.81,4.56-6.37.55-.37,1.03-.85,1.53-1.28,4.82-4.23,6.33-9.25,3.39-15.17-.99-1.99-.74-3.8.05-5.73,1.27-3.07,2.31-6.25,3.72-9.26,3.04-6.47.99-6.4,8.49-10.29,2.98-1.55,3.94-4.41,3.26-7.68-.4-1.94-1.1-3.83-1.5-5.77-.19-.93-.27-2.02.04-2.89,1.97-5.65,4.04-11.27,6.1-16.89.59-1.6,1.53-2.94,3-3.87.28-.18.57-.35.86-.52,5.63-3.21,6.62-7.95,4.39-13.65-.52-1.34-.58-2.53,0-3.8,2.6-5.76,5.21-11.51,7.79-17.28.99-2.22,2.96-3.53,4.59-5.18,1.74-1.76,2.68-3.95,2.01-6.37-.65-2.35-.6-4.44.41-6.7,3.12-6.99,6.03-14.06,9.1-21.07.79-1.8,1.89-3.47,2.82-5.22.46-.87,1.28-1.79,1.24-2.65-.24-4.65,2.5-8.17,4.3-12.04,4.63-9.96,9.02-20,13.1-30.21,6.78-16.99,14.12-33.76,21.15-50.64,11.39-27.33,21.94-54.99,32.43-82.67,9.44-24.88,19.61-49.47,30.02-73.97,1.84-4.34,4.22-8.19,7.29-11.79,11.08-13.02,19.51-27.73,26.69-43.2,3.78-8.15,7.17-16.46,10.26-24.91,14.09-38.49,25.45-77.76,33.94-117.86,4.76-22.46,9.24-44.98,13.83-67.47,4.26-20.86,8.49-41.73,12.74-62.6,1.73-8.48,3.42-16.96,5.24-25.42.63-2.91,1.27-5.9,2.5-8.58,1.01-2.2,1.72-4.26,1.54-6.66-.08-.98,0-2.01.22-2.97,1.76-7.44,3.58-14.88,5.37-22.31.33-1.35,1.03-2.35,2.3-3.05,1.16-.64,2.25-1.44,3.25-2.31,2.88-2.5,3.79-6.57,2.22-9.98-.55-1.2-1.3-2.32-2.06-3.42-1.01-1.46-1.33-3-.95-4.72.65-2.92,1.25-5.86,1.91-8.78.9-3.97,2.12-7.54,6.72-8.99,2.11-.67,4.02-2.36,5.68-3.94,2.04-1.95,2.7-4.43,1.77-7.31-.75-2.31-1.71-4.71-3.91-5.52-3.7-1.36-4.46-3.39-3.07-6.87.73-1.83,1.02-3.86,1.4-5.82.68-3.55,2.35-5.91,6.21-6.75,2.89-.63,5.68-1.88,8.37-3.17,3.67-1.77,5.15-5.46,4.03-9.2-.1-.32-.21-.63-.3-.95-1.37-4.41-3.58-7.85-8.8-8.25-.79-.06-1.54-1.09-1.16-2.31.3-.95.34-1.97.61-2.93,3.24-11.82.53-9.77,11.95-13,2.56-.73,5.13-1.41,7.64-2.29,3.7-1.29,5.21-4.26,4.14-7.88-.28-.95-.8-1.85-1.03-2.81-1.03-4.38-3.54-6.98-8.22-7.31-1.36-.1-2.35-1.45-2.4-2.73-.05-1.66-.07-3.32-.02-4.98.07-2.53,1.09-4.41,3.56-5.46,4.59-1.96,9.16-3.98,13.68-6.1,1.79-.84,3.58-1.82,5.11-3.06,4.28-3.44,4.49-9.07.65-13.17-.93-1-2.04-1.73-3.43-1.86-1.63-.15-3.28-.15-4.9-.33-.8-.09-1.01-.69-1.04-1.45-.17-3.47,1.29-6.48,2.57-9.55.54-1.28,1.47-2.21,2.68-2.84,2.36-1.24,4.72-2.45,7.09-3.67,2.67-1.37,5.39-2.63,7.99-4.11,5.7-3.25,6.44-9.21,1.84-14.2-.45-.48-1.04-.83-1.52-1.28-1.77-1.66-1.81-2-.58-3.99,2.63-4.26,5.33-8.6,9.17-11.77,3.74-3.08,5.1-7.74,8.43-11.03.79-.78.92-2.5.88-3.78-.09-2.72.4-5.25,1.33-7.8,2.29-6.24,4.4-12.55,6.68-18.8.56-1.55,1.12-3.39,2.29-4.36,3.35-2.76,4.03-5.81,2.35-9.71-.33-.77,0-1.97.33-2.85,2.82-7.47,5.7-14.91,8.57-22.36.12-.31.23-.62.35-.93.99-2.51,3.68-3.8,4.49-6.53.77-2.59.05-5.23,1-7.86,3.04-8.45,5.69-17.03,8.59-25.53.41-1.2,1.18-2.4,2.08-3.29,1.51-1.48,2.18-3.31,2.77-5.22,6.71-21.63,15.13-42.62,23.8-63.52,2.55-6.15,5-12.34,7.67-18.43,5.41-12.33,12.73-23.36,22.68-32.55,7.99-7.38,17.2-12.49,27.79-15.05,1.61-.39,3.26-.79,4.91-.88,9.98-.51,19.88-2.23,29.94-2.1ZM893.18,601.64s.07.02.1.03c-.63,2.24-1.28,4.47-1.9,6.72-.62,2.24-1.21,4.49-1.82,6.74-.38,1.41-1.32,2.22-2.71,2.58-1.61.42-3.2.93-4.82,1.3-3.57.81-7.17,1.47-10.72,2.35-5.02,1.25-7.21,4.31-6.91,9.46.26,4.45,2.46,7.49,6.77,8.86.95.3,1.94.45,2.89.75,1.38.43,1.93,1.65,1.35,3.1-3.08,7.71-6.63,15.24-8.51,23.39-.2.88-.99,1.69-1.66,2.39-.92.96-2.08,1.69-2.97,2.66-2.1,2.3-3.57,4.97-2.7,8.15.66,2.41.25,4.6-.44,6.83-1.76,5.72-3.7,11.39-5.27,17.15-.92,3.37-2.21,6-5.59,7.68-2.62,1.31-4.82,3.5-7.12,5.39-1.59,1.31-2.38,3.17-3.08,5.06-.52,1.41-.11,3.59,1.15,4.53,1.31.99,2.71,1.94,4.21,2.58,1.53.66,1.93,1.84,1.81,3.16-.15,1.64-.59,3.27-1.01,4.87-3.04,11.57-6.06,23.15-9.17,34.71-5.27,19.58-10.45,39.18-15.95,58.7-4.41,15.68-9.9,31.03-15.52,46.32-1.59,4.31-3.78,7.56-7.82,9.8-4.36,2.41-8.58,5.11-12.74,7.86-5.87,3.89-7.46,8.92-4.79,15.56,1.23,3.06,2.94,5.95,4.62,8.8,1.68,2.84,3.74,5.35,4.79,8.66,1.12,3.53,3.82,6.55,7.54,7.48,5.27,1.32,9.68,4.25,14.47,6.49,2.09.98,4.34,1.71,6.59,2.23,5.01,1.15,9.26-.46,12.47-4.36,1.46-1.77,2.58-3.88,3.57-5.97,2.29-4.8,4.46-9.66,6.58-14.54.77-1.77,2.04-2.58,3.84-2.51,9.98.38,19.97.72,29.94,1.24,19.29,1,38.56,2.16,57.85,3.17,17.96.94,35.92,1.75,53.88,2.66,3.32.17,6.64.58,9.96.76,4.03.22,7.9,1.05,11.64,2.56,6.59,2.66,13.6,3.11,20.55,3.62,5.53.41,10.54-1.39,14.83-4.88,3.89-3.16,7.25-6.87,10.02-11.06,2.3-3.47,3.12-7.15,2.1-11.37-2.19-9.11-4.98-17.91-10.17-25.85-3.29-5.03-5.5-10.56-7.28-16.33-5.58-18.11-11.4-36.14-17.12-54.2-3.21-10.14-6.7-20.2-9.57-30.44-4.31-15.36-8.1-30.87-12.26-46.27-4.42-16.37-8.65-32.79-13.6-49-9.71-31.79-19.84-63.45-29.84-95.15-1.61-5.1-2.77-10.2-2.89-15.61-.21-9.77-3.27-18.94-6.79-27.95-.12-.31-.3-.59-.45-.89-1.96-3.83-5.03-6.11-9.32-6.68-5.37-.71-10.6-.16-15.74,1.57-7.84,2.64-12.91,7.94-15.38,15.77-.6,1.9-.93,3.9-1.66,5.75-.32.81-1.22,1.59-2.04,1.94-1.82.78-3.82,1.16-5.64,1.95-1.19.52-2.5,1.24-3.24,2.25-2.94,4.03-5.65,8.23-6.87,13.17-.51,2.08.05,4.01,1.54,5.52,2.61,2.64,5.4,4.85,9.52,4.67,1.92-.08,2.24.68,1.73,2.56-1.06,3.85-2.15,7.68-3.23,11.52Z"/>
      <path class="cls-1" d="M2962.23,715.1c0,23.25.08,45.24-.02,67.22-.12,24,.58,47.95,2.13,71.91,1.16,17.95,1.63,35.94,2.62,53.9.99,17.96,2.2,35.9,3.39,53.85.6,8.97,1.23,17.95,2.13,26.89,2.49,24.91,10.54,47.99,23.26,69.49,4.76,8.04,10.21,15.6,16.1,22.85,17.8,21.89,40.44,36.34,67.56,43.9,24.96,6.95,50.4,9.54,76.19,7.51,26.4-2.08,51.89-7.98,76.05-19.3,17.23-8.08,31.65-19.57,44-33.85,4.59-5.31,8.49-11.08,11.8-17.29,6.58-12.33,13.26-24.62,19.99-36.87,3.2-5.83,6.55-11.58,9.92-17.32,2.37-4.03,4.46-8.18,5.99-12.6.76-2.2,1.47-4.42,2.28-6.6,4.79-12.96,14.42-20.39,27.47-23.82,4.2-1.1,8.47-1.69,12.84-1.76,3.99-.06,8-.26,11.97-.71,9.63-1.1,19.28-1.25,28.95-1.28,34.33-.09,68.66-.33,102.99-.28,31.33.05,62.65.15,93.96,1.54,6.66.3,13.33.33,19.99.57,11.65.42,23.31.91,34.96,1.35,7.66.29,15.32.68,22.98.78,10,.13,19.98.46,29.94,1.48,4.96.51,9.98.57,14.97.63,8.33.1,16.66.02,25,.03,4.34,0,8.59-.34,12.87-1.32,4.19-.96,8.57-1.08,12.88-1.47,5.83-.53,11.19.66,16.06,4.13,4.87,3.47,10.05,6.52,14.9,10.03,2.68,1.94,5.1,4.3,7.38,6.7,3.98,4.19,6.56,9.09,7.52,14.91.81,4.94,1.7,9.85,1.63,14.87-.1,6.99-.23,13.99-.38,20.98-.03,1.33,0,2.71-.34,3.97-3.01,11.31-3.6,23.02-5.64,34.48-3.5,19.66-7.6,39.19-12.83,58.48-4.88,17.99-9.88,35.92-16.54,53.36-4.39,11.52-9.27,22.81-14.87,33.79-13.12,25.7-29.63,48.9-50.19,69.27-28.28,28-58.78,53.2-92.64,74.18-31.41,19.47-63.06,38.56-94.62,57.8-3.98,2.43-7.87,4.91-11.39,8.04-6.75,6.01-14.48,10.65-22.47,14.82-7.68,4.01-15.68,7.3-23.72,10.5-3.22,1.28-5.67,1.25-7.82-1.65-.37-.5-1.08-.76-1.64-1.12-1.5-.95-3.19-1.22-4.79-.63-2.49.92-4.91,2.06-7.29,3.22-7.18,3.5-14.34,7.04-21.48,10.62-1.56.78-3.01,1.29-4.69.35-3.51-1.96-7.07-1.47-10.58.01-7.66,3.24-15.33,6.46-22.93,9.84-2.23.99-4.4,1.72-6.71.8-4.29-1.71-8.36-1.09-12.64.31-7.27,2.38-14.69,4.3-22.03,6.46-3.19.94-6.26,2.12-9.74,1.63-1.55-.22-3.31.32-4.85.86-6.97,2.43-14.07,3.73-21.48,4.05-7.64.33-15.23,1.63-22.86,2.38-10.28,1.02-20.56,1.93-30.85,2.86-21.93,1.98-43.92,2.05-65.91,2.7-16.99.5-33.97,1.16-50.97,1.1-9.33-.04-18.65-.2-27.96-1.12-4.97-.49-9.98-.53-14.98-.7-13.66-.47-27.27-1.5-40.82-3.46-12.85-1.86-25.79-3.15-38.66-4.85-17.5-2.31-34.96-4.86-52.46-7.17-54.25-7.14-107.41-19.38-159.96-34.37-24.4-6.96-47.64-16.92-69.61-29.7-12.14-7.06-23.53-15.14-33.78-24.75-4.4-4.12-9.25-7.53-14.48-10.52-16.2-9.26-31.9-19.32-47.14-30.09-2.45-1.73-4.82-3.56-7.22-5.35-.64-.48-.75-2.11-.15-2.58,2.08-1.66,4.14-3.34,6.27-4.92,21.19-15.67,41.3-32.62,60.62-50.54,7.93-7.35,14.18-15.79,19.5-25.08,10.78-18.82,19.81-38.45,27.32-58.77,9.83-26.59,17.27-53.86,22.04-81.8,2.35-13.78,3.97-27.67,5.17-41.62,1.43-16.62,1.93-33.25,1.75-49.91-.23-21.44-3.99-42.38-9.48-63.04-7.56-28.43-19.15-55.29-31.95-81.66-7.13-14.69-15.37-28.76-24.49-42.32-12.12-18.05-25.94-34.64-41.63-49.7-7.46-7.16-15-14.2-23.05-20.7-11.42-9.22-23.28-17.8-35.96-25.22-2-1.17-3.91-2.51-5.84-3.8-.63-.42-.66-1.05-.04-1.66,1.9-1.85,3.77-3.73,5.75-5.49,19.73-17.58,37.52-36.91,52.96-58.36,14.65-20.35,27.12-41.88,35.61-65.59,7.22-20.15,12.15-40.75,14.2-62.1,2.31-23.95,2.22-47.92.94-71.88-.93-17.29-3.55-34.41-6.74-51.46-4.4-23.56-9.24-47.02-14.78-70.33-4.23-17.8-8.55-35.58-13.74-53.14-8.25-27.93-19.84-54.35-35.48-78.96-.89-1.4-1.9-2.76-2.55-4.27-.34-.79-.3-1.99.05-2.79.52-1.19,1.43-2.23,2.24-3.28,13.75-17.65,28.91-34.01,45.39-49.14,14.05-12.9,29.7-23.6,46.08-33.31,9.48-5.62,19.19-10.64,29.78-13.86,5.72-1.74,11.36-3.74,17-5.74,1.87-.66,3.65-1.6,5.39-2.57,5.51-3.1,11-6.25,16.47-9.42,6.92-4.01,14.16-7.28,21.66-10.1,27.45-10.33,55.59-18.38,83.94-25.76,18.39-4.79,37.09-7.91,55.91-10.48,29.11-3.97,58.36-5.61,87.71-5.69,16.33-.04,32.66.01,48.99.2,8.33.1,16.65.59,24.97.92,2,.08,3.99.25,5.99.32,26.31.92,52.62,1.75,78.92,2.77,14.32.55,28.66.96,42.93,2.22,28.27,2.5,56.11,7.6,83.09,16.51,47.11,15.56,93.31,33.48,138.38,54.3,41.19,19.03,80.61,41.2,118.58,66,5.58,3.64,11.18,7.24,16.8,10.81,50.54,32.15,90.19,74.45,118.69,127.15,1.9,3.51,3.89,6.98,5.87,10.44,11.57,20.24,22.04,41.03,31.59,62.3,8.07,17.97,14.32,36.52,19.38,55.52,4.8,18.03,8.53,36.28,11.35,54.71,1.26,8.22,1.97,16.53,2.75,24.82.66,6.97,1.47,13.87,3.2,20.7,1.29,5.13,2.65,10.36,2.45,15.75-.07,1.96-.18,4.11-.99,5.83-4.58,9.71-10.35,18.62-18.63,25.67-.25.21-.54.38-.8.58-1.23.97-2.54.92-3.38-.14-1.45-1.81-2.76-3.77-4.4-5.39-1.75-1.74-4.06-2.39-6.46-1.52-2.18.8-4.28,1.83-6.37,2.86-6.27,3.08-12.69,5.93-18.73,9.41-4.91,2.83-9.96,3.42-15.36,2.89-1.05-.1-1.55-.74-1.39-1.95.22-1.64.57-3.29.58-4.93.02-2.84-1.33-5.12-3.49-6.87-1.91-1.55-4.12-2.3-6.53-1.39-3.42,1.3-6.79,2.74-10.16,4.16-6.75,2.82-13.48,5.67-20.23,8.49-.99.42-1.97-.19-1.97-1.47,0-2.4-.44-4.69-1.58-6.74-2.59-4.61-6.68-7.06-12.63-4.94-2.18.77-4.18,2.03-6.27,3.06-6.87,3.37-13.74,6.75-20.62,10.11-.84.41-2.02-.3-2.09-1.27-.09-1.32-.03-2.68-.28-3.97-.52-2.72-1.95-4.91-4.26-6.49-1.74-1.19-3.66-1.71-5.68-1-2.19.78-4.32,1.74-6.45,2.68-5.48,2.43-10.97,4.82-16.39,7.37-1.88.89-3.77,1.21-5.79,1.18-1.49-.02-2.73-.82-2.94-2.12-.16-.98-.09-2.01-.3-2.97-.96-4.48-4.96-7.73-9.34-7.27-2.27.24-4.54.96-6.7,1.78-8.09,3.07-16.12,6.28-24.18,9.43-.98.38-1.85-.1-2.12-1.16-.16-.64-.2-1.31-.33-1.96-.13-.65-.22-1.32-.47-1.93-2.03-5.03-7.19-7.46-12.23-5.67-1.87.67-3.65,1.6-5.44,2.49-5.67,2.81-11.32,5.64-16.97,8.5-1.95.99-3.81.9-5.7-.16-1.2-.67-2.22-1.46-2.36-2.95-.06-.66-.01-1.34-.12-1.99-.72-4.42-4.1-7.09-8.41-6.44-1.61.24-3.22.82-4.69,1.54-4.18,2.05-8.4,4.07-12.39,6.45-4.92,2.94-10.14,2.73-15.46,2.16-.5-.05-1.13-.68-1.34-1.19-.5-1.23-.67-2.58-1.16-3.81-1.4-3.55-3.9-5.32-7.71-5.08-2.63.16-5.28.65-7.84,1.3-3.87.98-7.75,2-11.47,3.42-4.19,1.6-8.44,1.73-12.78,1.46-1.46-.09-2.32-.85-2.97-2.17-.57-1.17-1.41-2.26-2.34-3.18-1.77-1.74-3.99-2.45-6.43-1.89-6.47,1.5-12.93,3.06-19.38,4.67-4.29,1.06-8.61.69-12.91.38-.86-.06-1.76-.83-2.46-1.47-.97-.89-1.7-2.05-2.67-2.96-1.27-1.19-2.91-1.7-4.6-1.54-1.98.19-3.94.6-5.89,1.03-3.57.8-7.11,1.74-10.69,2.51-4.63.99-9.25.95-13.86-.28-2.28-.61-4.33-1.35-5.87-3.4-1.53-2.03-3.96-2.33-6.36-2.07-1.65.18-3.34.44-4.88,1.01-5.53,2.01-11.05,1.89-16.68.48-2.25-.56-4.6-.7-6.89-1.12-.95-.17-1.95-.43-2.21-1.63-.07-.32-.22-.63-.3-.95-1.25-5.25-4.65-7.94-9.96-8.12-2.68-.09-4.22-1.48-5.43-3.66-1.81-3.25-2.94-6.69-3.37-10.38-.04-.33-.01-.67-.04-1-.34-3.31-.58-6.64-1.06-9.94-.31-2.13.15-3.86,1.46-5.56,1.57-2.04,1.39-4.4.5-6.66-1.25-3.16-2.94-6.09-6.43-7.19-2.17-.68-3.13-2.13-3.9-4.09-2.67-6.82-5.64-13.5-9.17-19.93-.98-1.79-1.38-3.69-.57-5.75.36-.91.39-1.96.5-2.95.54-4.75-.9-7.37-5.29-9.61-.58-.3-1.26-.43-1.92-.55-1.77-.32-3.01-1.36-3.91-2.83-4.54-7.37-9-14.79-13.63-22.1-1.15-1.82-1.5-3.67-1.43-5.67.11-3.04-1.7-4.9-3.87-6.57-.26-.2-.56-.37-.83-.56-2.17-1.56-5.2-1.32-7.14-3.4-1.82-1.95-3.64-3.9-5.53-5.78-5.21-5.19-10.91-9.77-16.93-13.99-2.98-2.09-5.67-4.72-8.88-6.33-2.9-1.46-6.34-1.85-9.54-2.73-.64-.18-1.29-.36-1.9-.62-10.22-4.34-20.82-4.08-31.45-2.26-3.31.57-6.58.91-9.92.9-4.67-.02-9.33.02-14,0-20.35-.1-40.61,1.27-60.83,3.61-7.93.92-15.93,1.2-23.85,2.46-18.15,2.89-35.89,7.16-52.68,14.83-6.37,2.91-12.96,5.22-19.66,7.22-9.01,2.7-15.84,8.25-21.13,15.87-1.76,2.54-2.75,5.28-2.63,8.42.09,2.33.01,4.66.01,7,0,38.65.16,77.29-.05,115.94-.16,30.32.65,60.62,1.48,90.93.23,8.32.44,16.65.62,23.72Z"/>
      <path class="cls-2" d="M1970.71,916.4c8.33,0,16.65.02,24.98,0,12.65-.04,25.29.31,37.91-1.12,5.94-.67,11.97-.67,17.96-.85,10.31-.32,20.63-.31,30.94-1.03,14.33-1.01,28.63.2,42.87,1.73,6.66.71,13.01,2.78,19.02,5.75,14.83,7.31,27.74,17.07,38.19,29.96,10.04,12.4,16.28,26.65,19.84,42.06,6.53,28.31,4.85,56.2-5.24,83.46-9.53,25.75-26.94,44.83-50.62,58.31-7.83,4.46-16.25,7.57-25.23,9.08-8.2,1.38-16.35,3.03-24.37,5.3-5.15,1.46-10.43,2.12-15.78,2.25-2.66.06-5.33.25-7.99.19-16.69-.37-33.26.97-49.8,3.07-6.93.88-13.9,1.54-20.82,2.45-16.89,2.23-33.89,2.16-50.86,2.55-8.33.19-16.65.39-24.95-.64-1.32-.16-2.66-.17-3.98-.36-10.42-1.5-9.03-1.05-15.78-8.81-2.72-3.13-4.3-6.5-4.45-10.78-.35-9.64-1.1-19.27-1.66-28.91-.69-11.96-1.36-23.93-2.02-35.89-.13-2.33-.23-4.66-.2-6.99.23-20.99-1.2-41.92-1.75-62.89-.08-3.05-.07-6.11-3.56-7.53-2.81-4.5-6.75-8.18-9.1-13.02-1.33-2.73-.86-5.15.69-7.52,2.07-3.16,5.13-5.2,8.3-7.04,1.69-.98,2.26-2.33,1.94-4.12-.98-5.57-1.98-11.13-3.02-16.68-.37-1.96-.96-3.88-1.28-5.84-.59-3.71-.14-7.31,1.73-10.63,1.3-2.31,2.55-4.67,4.04-6.86.71-1.04,1.8-2.03,2.95-2.55,6.1-2.75,12.4-4.86,19.17-5.11,8.65-.33,17.3-.77,25.96-.93,8.66-.16,17.32-.04,25.98-.04ZM2156.73,1031.98c-.27-5.43-1.4-10.2-4.74-14.25-2.08-2.53-3.95-3.21-7-2.2-12.3,4.11-24.65,8.1-36.87,12.43-20.06,7.12-40.05,14.43-60.03,21.76-2.53.93-5,1.86-7.71,1.74-2.4-.11-4.49-.92-6.22-2.74-5.42-5.74-2.6-12.15,2.51-15.09,1.43-.82,3.04-1.35,4.62-1.86,3.17-1.02,6.38-1.9,9.55-2.9,10.14-3.21,20.38-6.15,30.16-10.43,16.16-7.07,32.68-13.21,49.26-19.21,5.63-2.04,11.26-4.07,16.88-6.14,2.28-.84,2.79-2.47,1.56-4.69-.32-.58-.67-1.15-.99-1.73-4.17-7.49-10.6-12.71-17.53-17.43-1.23-.84-2.47-.78-3.77-.29-.62.24-1.26.43-1.87.7-13.69,6.13-28.05,10.43-42.12,15.5-1.87.67-3.81,1.21-5.75,1.67-6.48,1.52-12.97,2.99-19.46,4.45-7.16,1.6-14.13,3.64-20.68,7.11-5.29,2.79-10.84,5.09-16.28,7.59-1.81.83-3.62,1.7-5.49,2.38-2.32.83-4.66.6-6.7-.77-1.35-.91-2.67-2.01-3.67-3.29-2.37-3.03-3.17-6.51-2.46-10.34.05-.29-.89-1.13-1.22-1.06-4.52,1.03-9.05,2.08-13.51,3.33-7.68,2.16-15.31,4.51-22.99,6.68-3.46.98-6.62.46-8.96-2.62-.4-.53-.75-1.1-1.19-1.6-1.87-2.11-4.14-1.7-6.42-.94-1.39.46-1.95,1.91-1.82,4.19.45,7.64,1.05,15.28,1.28,22.93.45,14.97.39,29.95,1.75,44.9,1.12,12.26,1.7,24.58,2.53,36.87.04.66.2,1.32.3,1.97.1.67,1.46,1.83,2.14,1.8,1.32-.05,2.65,0,3.97-.12,11.61-1.02,23.22-2.12,34.83-3.08,11.62-.96,23.28-1.5,34.86-2.76,12.61-1.38,25.23-1.99,37.9-1.83,4.34.06,8.65-.18,12.92-1.03,10.44-2.08,20.9-4.06,31.34-6.18,3.25-.66,6.47-1.54,9.65-2.48,4.53-1.35,8.49-3.75,12.05-6.86,5.06-4.41,9.44-9.38,12.89-15.15.22-.36-.11-1.12-.34-1.63-.09-.21-.61-.36-.9-.32-5.31.74-10.32,2.54-15.26,4.52-8.33,3.35-16.6,6.87-24.93,10.21-2.77,1.11-5.63,2.06-8.52,2.76-11.32,2.73-22.66,5.34-34,7.96-1.61.37-3.26.64-4.91.79-2.7.24-5.3-1.43-6.28-3.97-.48-1.24-.9-2.51-1.22-3.8-.96-3.86.82-7.42,4.64-8.77,3.76-1.33,7.61-2.4,11.44-3.49,10.23-2.92,20.62-5.4,30.69-8.79,17.65-5.94,35.08-12.53,52.67-18.65,8.97-3.12,7.01-2.74,8.96-11.14.37-1.6.32-3.31.43-4.63ZM2088.11,962.29c.47-.46.42-.72-.14-.8-8.12-1.25-15.84.61-23.33,3.39-10.56,3.92-21.04,8.06-31.52,12.22-5.8,2.3-11.32,5.2-16.66,8.41-.27.16-.66.12-.96.25-.43.19-.82.44-1.23.67.33,0,.69.09.99-.02,1.52-.52,3.03-1.1,4.55-1.64,6.21-2.23,12.43-4.45,18.65-6.67,3.27-3.29,7.78-3.48,11.88-4.55,6.74-1.76,13.59-3.1,20.37-4.68,5.5-1.28,10.89-2.92,15.95-5.48.53-.27.97-.72,1.45-1.09Z"/>
      <path class="cls-2" d="M1998.15,631.58c-12.05.27-26.35-.51-40.66-1.33-9.31-.53-18.65-.66-27.98-.64-3.89,0-7.18-1.04-10.22-3.27-4.84-3.54-9.6-7.19-14.55-10.56-3.65-2.48-6.48-5.61-8.98-9.19-1.99-2.86-2.96-5.95-3.1-9.34-.13-2.99-.1-5.99-.1-8.99,0-40.98,0-81.96-.02-122.93,0-3.98.37-7.97-.87-11.9-.38-1.2-.15-2.63,0-3.93.18-1.64.68-3.25.85-4.89.29-2.75-.04-5.29-2.61-7.09-1.06-.74-1.98-1.82-2.66-2.93-1.63-2.65-2.48-5.5-.89-8.51,1.41-2.68,2.22-5.5,2.81-8.47.37-1.9,1.31-3.8,2.39-5.44,3.33-5.09,7.84-9.06,12.92-12.32,2.56-1.64,5.47-1.97,8.62-1.78,9.38.55,18.48,2.69,27.44,5.14,5.98,1.63,11.83,1.59,17.78,1.13,3.97-.31,7.98-.89,11.82-1.89,3.9-1.02,7.43-.58,10.33,1.94,2.89,2.52,6.14,2.57,9.4,2.12,3.61-.5,7.12-1.66,10.68-2.5,2.27-.54,4.57-.94,6.81-1.58,3.69-1.04,6.63.05,8.68,3.14,1.31,1.98,2.86,2.52,5.06,1.99,6.46-1.58,12.94-3.11,19.41-4.66,1.29-.31,2.58-.74,3.89-.83,2.1-.16,3.98.67,5.35,2.2.86.95,1.33,2.26,1.96,3.41,1.6,2.91,3.42,3.79,6.5,2.66,4.37-1.61,8.75-3.24,12.94-5.26,7.71-3.71,10.7-1.43,14.22,4.05.54.84,1.19,1.62,1.66,2.5.55,1.01,1.5,1.33,2.46,1.48,5.29.85,10.33,2.59,15.31,4.48,1.94.74,3.73.88,5.76.17,3.45-1.21,6.96-2.31,10.53-3.08,3.5-.76,6.58.44,8.91,3.22,1.34,1.6,2.04,3.51,1.53,5.57-.48,1.91-1.27,3.75-1.97,5.6-.49,1.3-.3,2.96.62,3.61,6.54,4.73,12.09,10.44,16.89,16.9.88,1.18,2.08,1.55,3.51,1.23.32-.07.66-.12.98-.19,6.72-1.54,11.5,5.82,8.8,12.62-.6,1.52-1.77,2.81-2.56,4.27-.27.5-.22,1.21-.22,1.82,0,.31.16.64.31.93,4.05,7.73,6.79,15.91,8.35,24.47.5,2.71,1.33,5.05,3.44,6.99,1.92,1.76,2.23,4.29,1.01,6.44-1.41,2.49-1.68,4.92-1.42,7.66,2.08,21.4-2.23,41.74-10.5,61.37-6.65,15.78-17.26,28.33-31.42,37.93-4.44,3.01-9.36,5.06-14.22,7.23-8.26,3.68-16.88,5.81-25.84,7.29-10.28,1.7-20.52,2.02-30.86,1.99-18.66-.05-37.33-.01-58.29-.01ZM1941.33,526.27c0,14.98-.01,29.96.01,44.94,0,2.32.16,4.64.22,6.97.03,1.21.96,1.78,1.83,2.11.9.34,1.96.32,2.95.35,14.31.42,28.64.3,42.89,1.98,1.64.19,3.33.06,4.99.06,11.99,0,23.98-.09,35.96.04,5.75.06,11.2-.93,16.56-2.99,4.65-1.79,9.41-3.3,14.17-4.79,17.15-5.38,33.7-12.33,50.3-19.18,3.47-1.43,5.26-3.49,6.21-7.04,1.12-4.21,2.07-8.38,1.85-12.76-.05-.9-1.1-1.83-1.91-1.63-8.72,2.17-17.27,4.85-25.7,7.94-17.48,6.4-34.95,12.83-52.43,19.24-1.56.57-3.08,1.29-4.69,1.63-2.81.6-5.24-.23-7.15-2.48-1.31-1.55-2.28-3.24-2.63-5.28-.54-3.18.65-6.17,3.28-7.78,1.13-.69,2.32-1.32,3.52-1.88,8.73-4.08,17.47-8.16,26.23-12.19,1.8-.83,3.67-1.55,5.58-2.08,8.32-2.32,16.78-4.21,24.97-6.92,9.77-3.24,19.31-7.15,28.94-10.8,1.4-.53,2.01-1.72,1.86-3.13-.76-7.36-3.24-14.23-6.13-20.97-.99-2.3-2.23-3.01-4.76-2.39-10.32,2.53-20.75,4.62-30.59,8.9-18.01,7.82-36.67,13.87-55.36,19.84-1.57.5-3.16,1.05-4.79,1.29-4.26.63-8.91-2.18-10.18-6.33-1.49-4.86,0-8.5,4.21-11.15,1.65-1.04,3.61-1.7,5.52-2.24,5.43-1.56,10.93-2.89,16.36-4.46,8.3-2.4,16.69-4.45,24.7-7.82,11.64-4.89,23.37-9.59,35.41-13.47.94-.3,1.85-.71,2.78-1.05.7-.26.95-2.03.33-2.53-1.01-.84-1.97-1.81-3.12-2.39-7.88-3.98-16.48-5-25.09-5.98-4.72-.54-9.25.05-13.66,1.87-4.3,1.78-8.66,3.43-13.02,5.03-5.93,2.18-11.83,4.45-17.86,6.33-8.57,2.66-17.23,5.03-25.87,7.45-1.58.45-3.24.71-4.88.85-2.76.23-5.34-1.64-6.05-4.21-.63-2.27-.91-4.54-.49-6.9.44-2.48,1.68-4.34,3.95-5.39,1.5-.69,3.1-1.16,4.64-1.75,3.41-1.3,6.81-2.6,10.21-3.94.25-.1.47-.42.58-.69.23-.6-.19-.76-1.12-.83-5.71-.41-11.26-.09-16.55,2.5-1.75.85-3.79,1.12-5.72,1.58-10.02,2.41-20.02,4.93-30.09,7.11-3.31.71-6.23,2.26-9.4,3.22-1.07.32-1.51,1.33-1.57,2.3-.15,2.32-.18,4.65-.18,6.98-.01,14.98,0,29.96,0,44.94Z"/>
      <path class="cls-2" d="M893.18,601.64c1.08-3.84,2.17-7.68,3.23-11.52.52-1.87.19-2.64-1.73-2.56-4.12.18-6.91-2.03-9.52-4.67-1.49-1.51-2.05-3.44-1.54-5.52,1.21-4.94,3.93-9.14,6.87-13.17.74-1.01,2.05-1.74,3.24-2.25,1.82-.79,3.82-1.17,5.64-1.95.83-.35,1.73-1.14,2.04-1.94.73-1.85,1.05-3.85,1.66-5.75,2.47-7.83,7.54-13.13,15.38-15.77,5.14-1.73,10.38-2.28,15.74-1.57,4.29.57,7.36,2.85,9.32,6.68.15.3.33.58.45.89,3.53,9.01,6.58,18.18,6.79,27.95.12,5.41,1.28,10.51,2.89,15.61,10,31.7,20.13,63.36,29.84,95.15,4.95,16.21,9.18,32.64,13.6,49,4.16,15.4,7.95,30.91,12.26,46.27,2.87,10.24,6.36,20.3,9.57,30.44,5.72,18.06,11.55,36.09,17.12,54.2,1.78,5.78,4,11.31,7.28,16.33,5.19,7.94,7.99,16.74,10.17,25.85,1.01,4.22.19,7.9-2.1,11.37-2.77,4.19-6.13,7.89-10.02,11.06-4.29,3.49-9.3,5.29-14.83,4.88-6.95-.52-13.96-.97-20.55-3.62-3.74-1.51-7.61-2.34-11.64-2.56-3.32-.19-6.64-.59-9.96-.76-17.96-.91-35.92-1.72-53.88-2.66-19.29-1.01-38.56-2.17-57.85-3.17-9.98-.52-19.96-.87-29.94-1.24-1.8-.07-3.07.75-3.84,2.51-2.12,4.88-4.29,9.74-6.58,14.54-1,2.09-2.11,4.2-3.57,5.97-3.21,3.9-7.46,5.52-12.47,4.36-2.25-.52-4.5-1.25-6.59-2.23-4.78-2.24-9.2-5.17-14.47-6.49-3.72-.93-6.41-3.96-7.54-7.48-1.06-3.31-3.12-5.82-4.79-8.66-1.68-2.85-3.39-5.74-4.62-8.8-2.67-6.64-1.08-11.67,4.79-15.56,4.16-2.76,8.37-5.45,12.74-7.86,4.04-2.23,6.23-5.49,7.82-9.8,5.63-15.29,11.11-30.64,15.52-46.32,5.49-19.52,10.68-39.12,15.95-58.7,3.11-11.56,6.13-23.13,9.17-34.71.42-1.6.87-3.23,1.01-4.87.12-1.32-.28-2.5-1.81-3.16-1.5-.64-2.9-1.59-4.21-2.58-1.26-.95-1.67-3.12-1.15-4.53.7-1.89,1.49-3.75,3.08-5.06,2.31-1.9,4.5-4.09,7.12-5.39,3.38-1.69,4.67-4.31,5.59-7.68,1.57-5.77,3.52-11.43,5.27-17.15.69-2.23,1.1-4.43.44-6.83-.87-3.19.6-5.86,2.7-8.15.89-.98,2.05-1.71,2.97-2.66.67-.7,1.45-1.51,1.66-2.39,1.88-8.15,5.43-15.68,8.51-23.39.58-1.45.03-2.67-1.35-3.1-.95-.29-1.94-.45-2.89-.75-4.31-1.37-6.51-4.41-6.77-8.86-.3-5.15,1.89-8.21,6.91-9.46,3.55-.88,7.15-1.54,10.72-2.35,1.62-.37,3.21-.88,4.82-1.3,1.39-.36,2.33-1.17,2.71-2.58.6-2.25,1.2-4.49,1.82-6.74.62-2.24,1.27-4.48,1.9-6.72-.03,0-.07-.02-.1-.03ZM878.36,869.08c3.34,0,4.34-.08,5.33.01,5.1.47,9.76-.73,14.37-2.99,12.83-6.3,26.19-11.37,39.42-16.72,2.45-.99,5-1.88,7.24-3.25,2.61-1.61,5.36-2.51,8.28-3.25,7.4-1.88,14.74-3.99,22.1-6.02.9-.25,1.66-1.51,1.41-2.3-1.02-3.15-1.96-6.34-3.15-9.43-.83-2.15-1.79-4.31-3.08-6.2-3-4.41-5.17-5.07-10.14-3.51-1.58.5-3.12,1.13-4.7,1.65-11.67,3.81-23.29,7.8-35.19,10.9-17.35,4.52-34.43,9.97-51.57,15.23-2.97.91-4.47,2.65-4.95,5.51-.83,4.93-2.25,9.69-3.84,14.42-1.14,3.4-.81,3.93,2.93,4.36,5.94.69,11.89,1.23,15.53,1.59ZM872.87,815.49c-.48,3.02-2.37,5.18-.84,6.7,2.07,2.06,4.13-.68,6.23-1.14,1.6-.35,3.09-1.19,4.63-1.82,4.61-1.9,9.33-3.31,14.27-4.29,9.45-1.86,18.79-4.22,28.15-6.5,2.57-.63,5.04-1.67,7.52-2.62,9.3-3.56,18.59-7.17,27.89-10.75.62-.24,1.24-.47,1.85-.74,1.09-.47,1.87-2.2,1.52-3.23-1.41-4.1-3.06-8.07-5.48-11.7-1.06-1.59-2.55-2.18-4.28-1.52-11.48,4.37-22.96,8.74-34.43,13.15-14.25,5.47-27.96,12.37-42.85,16.14-1.43.36-2.22,1.4-2.62,2.72-.67,2.22-1.25,4.47-1.57,5.6ZM882.96,783.66c.15,2.27,1.11,2.92,3.28,1.96,2.74-1.2,5.48-2.41,8.15-3.74,15.5-7.7,31.44-14.26,48.05-19.22,3.74-1.12,7.82-1.72,11.03-4.31.91-4.17-1.72-7.58-2.46-11.41-.31-1.62-.96-3.18-1.46-4.76-.2-.63-.38-1.27-.6-1.89-.28-.81-1.64-1.34-2.47-.9-7.35,3.86-14.68,7.78-22.06,11.59-2.65,1.37-5.36,2.67-8.16,3.68-8.13,2.91-16.25,5.86-24.51,8.35-3.8,1.15-5.39,3.57-6.12,6.98-.97,4.54-1.8,9.11-2.68,13.67ZM931.95,698.49c-7.91,2.51-16.74,5.32-25.57,8.12-1.64.52-2.89,1.34-3.4,3.19-2.87,10.54-5.82,21.05-8.72,31.58-.07.24.05.59.19.82.17.28.46.69.68.68.97-.03,2.01-.01,2.91-.33,15.01-5.34,29.08-12.76,43.49-19.45,1.74-.81,2.45-2.26,1.94-4.01-1.76-6.03-3.54-12.06-5.39-18.06-.28-.91-.9-1.78-1.56-2.49-.38-.42-1.12-.66-1.72-.69-.62-.04-1.26.26-2.84.64ZM957.53,873.3c6.23-.22,10.89-.2,15.51-.59,4.28-.36,8.52-1.12,12.76-1.82.42-.07,1.06-1.07.97-1.5-1.02-4.85-2.14-9.68-3.28-14.51-.23-.99-1.41-1.65-2.28-1.35-10.98,3.74-21.97,7.43-32.91,11.29-4.04,1.43-7.94,3.26-11.88,4.94-.26.11-.53.5-.56.78-.02.19.36.53.62.6,1.9.53,3.78,1.31,5.71,1.44,5.63.4,11.27.54,15.33.71ZM931.27,677.49c-.02-.33.04-.69-.06-.99-1.45-4.47-3.51-8.58-6.87-11.97-1.17-1.18-2.59-1.21-3.18.1-2.61,5.73-5.2,11.47-7.77,17.22-.12.27-.09.81.09.95.46.37,1.14.92,1.57.8,5.11-1.43,10.2-2.94,15.26-4.54.45-.14.65-1.03.97-1.58Z"/>
    </g>
  </g>
</svg>